<?xml version="1.0" standalone="no"?>
<!DOCTYPE svg PUBLIC "-//W3C//DTD SVG 1.1//EN" "http://www.w3.org/Graphics/SVG/1.1/DTD/svg11.dtd">
<svg xmlns="http://www.w3.org/2000/svg">
<metadata>Generated by Fontastic.me</metadata>
<defs>
<font id="untitled-font-2" horiz-adv-x="512">
<font-face font-family="untitled-font-2" units-per-em="512" ascent="480" descent="-32"/>
<missing-glyph horiz-adv-x="512" />

<glyph glyph-name="delete" unicode="&#97;" d="M256 423c-92 0-168-76-168-168 0-93 76-168 168-168 92 0 168 75 168 168 0 92-76 168-168 168z m0-317c-82 0-149 67-149 149 0 82 67 148 149 148 82 0 149-66 149-148 0-82-67-149-149-149z m54 202c-4 4-10 4-14 0l-40-40-40 40c-4 4-10 4-14 0-3-3-3-9 0-13l40-40-40-40c-3-4-3-10 0-14 4-3 10-3 14 0l40 40 40-40c4-3 10-3 14 0 3 4 3 10 0 14l-40 40 40 40c3 4 3 10 0 13z"/>
<glyph glyph-name="add" unicode="&#98;" d="M256 423c-92 0-168-76-168-168 0-93 76-168 168-168 92 0 168 75 168 168 0 92-76 168-168 168z m0-317c-82 0-149 67-149 149 0 82 67 148 149 148 82 0 149-66 149-148 0-82-67-149-149-149z m66 159l-57 0 0 56c0 5-4 10-9 10-5 0-9-5-9-10l0-56-57 0c-5 0-10-4-10-9 0-5 5-9 10-9l57 0 0-58c0-6 4-10 9-10 5 0 9 4 9 10l0 58 57 0c5 0 10 4 10 9 0 5-5 9-10 9z"/>
<glyph glyph-name="back-one-page" unicode="&#99;" d="M256 417c-89 0-162-73-162-162 0-89 73-162 162-162 89 0 162 73 162 162 0 89-73 162-162 162z m0-307c-80 0-145 65-145 145 0 80 65 145 145 145 80 0 145-65 145-145 0-80-65-145-145-145z m63 165l-83 0 16 18c10 11 2 29-13 29l-3 0c-5 0-9-4-13-7l-42-47c-6-7-6-18 0-24l42-48c4-3 8-6 13-6l3 0c15 0 23 18 13 29l-16 18 83 0c9 0 17 9 17 19 0 10-8 19-17 19z"/>
<glyph glyph-name="coach-supplier" unicode="&#100;" d="M257 169c-33 0-60-21-74-52 19-14 44-23 71-23 29 0 55 10 75 27-14 28-41 48-72 48z m45 63c0-25-20-46-46-46-25 0-46 21-46 46 0 26 21 46 46 46 26 0 46-20 46-46z m58 194l-207 0c-9 0-10 0-10-11l0-101c0-11 1-20 10-20l207 0c9 0 9 9 9 20l0 101c0 11 0 11-9 11z m0-123l-207 0c1 0-1 3-1 4l0 109 208 0 0-113z m-189 94l170 0 0-9-170 0z m0-28l160 0 0-9-160 0z m0-28l132 0 0-10-132 0z"/>
<glyph glyph-name="date" unicode="&#101;" d="M386 397l-73 0 0 14c0 6-4 11-10 11-6 0-9-5-9-11l0-14-29 0 0 14c0 6-3 11-9 11-6 0-9-5-9-11l0-14-29 0 0 14c0 6-3 11-9 11-6 0-10-5-10-11l0-14-73 0c-11 0-21-7-21-18l0-261c0-10 10-22 21-22l260 0c11 0 21 12 21 22l0 261c0 11-10 18-21 18z m2-273l-264 0 0 254 75 0 0-15c0-6 4-11 10-11 6 0 9 5 9 11l0 15 29 0 0-15c0-6 3-11 9-11 6 0 9 5 9 11l0 15 29 0 0-15c0-6 3-11 9-11 6 0 10 5 10 11l0 15 75 0z m-207 189l66 0 0-66-66 0z m84 0l66 0 0-66-66 0z m-84-85l66 0 0-66-66 0z m84 0l66 0 0-66-66 0z"/>
<glyph glyph-name="day-off" unicode="&#102;" d="M380 366l0-247-248 0 0 247 248 0m2 25l-252 0c-13 0-23-10-23-23l0-252c0-13 10-23 23-23l252 0c13 0 23 10 23 23l0 252c0 13-10 23-23 23z m-175-48c-7 0-12 6-12 13l0 48c0 7 5 13 12 13 7 0 13-6 13-13l0-48c0-7-6-13-13-13z m49 0c-7 0-13 6-13 13l0 48c0 7 6 13 13 13 7 0 13-6 13-13l0-48c0-7-6-13-13-13z m49 0c-7 0-13 6-13 13l0 48c0 7 6 13 13 13 7 0 12-6 12-13l0-48c0-7-5-13-12-13z m-49-206c-51 0-93 41-93 93 0 51 42 93 93 93 51 0 93-42 93-93 0-52-42-93-93-93z m0 160c-37 0-68-30-68-67 0-38 31-68 68-68 37 0 68 30 68 68 0 37-31 67-68 67z m-11-107c-3 0-6 2-9 4-5 5-5 13 0 18l44 44c5 5 13 5 18 0 5-5 5-13 0-18l-44-44c-2-2-6-4-9-4z m0 0c-3 0-6 2-9 4l-22 22c-5 5-5 13 0 18 5 5 13 5 18 0l22-22c5-5 5-13 0-18-2-2-6-4-9-4z"/>
<glyph glyph-name="download" unicode="&#103;" d="M313 284l-29-25 0 133c0 15-13 27-28 27-15 0-28-12-28-27l0-133-29 25c-17 17-47 4-47-20l0-4c0-8 5-16 10-21l75-68c10-10 27-10 38 0l75 68c5 5 10 13 10 21l0 4c0 24-30 37-47 20z m47-159c0 10-8 18-18 18l-172 0c-10 0-18-8-18-18l0-21c0-10 8-18 18-18l172 0c10 0 18 8 18 18z"/>
<glyph glyph-name="edit-profile" unicode="&#104;" d="M382 284l-114-115c-4-4-9-7-15-7 0 0-1 0-1 0 0 0-58 1-58 1-7 0-15 3-21 9-5 6-9 13-9 21 0 0 0 59 0 59 0 6 3 12 7 16l114 115c9 9 2 24-10 24l-164 0c-8 0-15-5-15-13l0-286c0-8 7-12 15-12l281 0c8 0 15 4 15 12l0 166c0 13-16 20-25 10z m31 77l-51 51c-5 5-12 5-17 0l-19-19c-2-2-2-5 0-7l62-63 25 25c3 3 3 10 0 13z m-211-94l65-66c0 0 0-1 0-1l104 106c2 1 2 5 0 6l-59 60c-2 2-5 2-7 0l-103-105c0 0 0 0 0 0z m-16-28l0-46c0-2 1-6 3-8 1-1 3-4 5-4l46 0c4 0 6 7 3 10l-49 51c-3 3-8 2-8-3z"/>
<glyph glyph-name="home" unicode="&#105;" d="M105 301c-4 0-8 2-11 5-3 6-1 14 4 17l150 93c5 3 13 1 16-4 4-6 2-14-4-17l-149-92c-2-2-4-2-6-2z m298 0c-2 0-4 0-6 2l-149 92c-6 3-8 11-4 17 3 5 11 7 16 4l150-93c5-3 7-11 4-17-3-3-7-5-11-5z m-149 37l120-75 0-146-240 0 0 146 120 75m0 28l-144-89 0-185 288 0 0 185z m16-201l0-48-32 0 0 48 32 0m24 24l-80 0 0-97 80 0z"/>
<glyph glyph-name="logout" unicode="&#106;" d="M212 275l-68 0 13 13c9 10 2 25-10 25l-2 0c-4 0-8-2-11-5l-35-42c-5-6-5-16 0-22l35-41c3-3 7-4 11-4l2 0c12 0 19 15 10 25l-13 13 68 0c8 0 15 10 15 19 0 9-7 19-15 19z m143-181l-124 0c-35 0-62 31-62 68l0 47c0 6 5 11 10 11 6 0 11-5 11-11l0-47c0-25 18-45 41-45l124 0c22 0 41 20 41 45l0 186c0 24-19 45-41 45l-124 0c-23 0-41-21-41-45l0-47c0-6-5-11-11-11-5 0-10 5-10 11l0 47c0 37 28 68 62 68l124 0c34 0 62-31 62-68l0-186c0-37-28-68-62-68z m-129 103l-47 0c-5 0-10 5-10 12 0 6 5 11 10 11l47 0c10 0 17 9 17 20l0 30c0 11-7 20-17 20l-47 0c-5 0-10 5-10 11 0 7 5 12 10 12l47 0c21 0 39-19 39-43l0-30c0-24-18-43-39-43z"/>
<glyph glyph-name="notification" unicode="&#107;" d="M396 158c-10 20-18 40-28 60-1 2 0 4 0 6 0 30 0 61 0 92-1 35-16 63-43 86-42 34-99 34-141-1-18-15-30-36-36-58-4-10-4-22-4-33 0-29 0-58 0-86 0-2-1-3-1-5-15-29-30-58-45-88 0 0-2-1-2-1 0 0 0 0 0-1 37 0 68 0 100 1 1 0 3-1 4-1 0 0 1-1 1-2 8-23 27-44 53-45 26-1 50 20 56 45 1 1-2 2 0 2 33 0 78 0 97 0 0 1 0 1 0 1 0 9-6 18-11 28z m-140-57c-14 0-27 14-31 23 21 0 41 0 62 0-3-9-17-22-31-23z m-123 51c0 0 1 3 1 4 10 20 21 41 31 62 1 2 1 4 1 6 0 29 0 58 0 87 0 19 5 36 15 51 15 23 37 37 65 40 45 5 85-23 97-66 2-8 3-16 3-25 0-29 0-58 0-87 0-2 0-4 1-6 10-21 21-42 31-62 0-1 1-4 1-4-82 0-164 0-246 0z"/>
<glyph glyph-name="partner" unicode="&#108;" d="M225 322c0-30-24-54-53-54-30 0-54 24-54 54 0 29 24 53 54 53 29 0 53-24 53-53z m22-95c0 16-13 29-29 29l-94 0c-15 0-28-13-28-29l0-65c0-16 13-29 28-29l94 0c16 0 29 13 29 29z m147 95c0-30-24-54-54-54-29 0-53 24-53 54 0 29 24 53 53 53 30 0 54-24 54-53z m22-95c0 16-13 29-28 29l-94 0c-16 0-29-13-29-29l0-65c0-16 13-29 29-29l94 0c15 0 28 13 28 29z"/>
<glyph glyph-name="partner-setting" unicode="&#109;" d="M228 262c0-26-21-48-47-48-26 0-47 22-47 48 0 26 21 47 47 47 26 0 47-21 47-47z m-8-166l-78 0c-16 0-29 13-29 28l0 51c0 15 13 28 29 28l78 0c16 0 29-13 29-28l0-51c0-15-13-28-29-28z m158 166c0-26-21-48-47-48-26 0-47 22-47 48 0 26 21 47 47 47 26 0 47-21 47-47z m-8-166l-78 0c-16 0-29 13-29 28l0 51c0 15 13 28 29 28l78 0c16 0 29-13 29-28l0-51c0-15-13-28-29-28z m-110 277c-6 2-12-1-14-6-2-6 1-12 6-14 6-2 12 1 14 6 2 6-1 12-6 14z m45-16l-9 5c0 2-1 4-1 5l9 7c2 1 2 4 2 6l-6 11c-1 2-3 3-5 2l-11-3c-1 1-2 3-4 4l2 11c0 2-1 4-3 5l-11 4c-3 1-5 0-6-2l-6-10c-1 0-3 0-5 0l-6 9c-1 2-4 2-6 1l-11-5c-2-1-3-3-2-6l2-10c-1-1-2-2-3-4l-10 2c-3 0-5-1-6-3l-4-11c-1-2 0-5 2-6l10-5c0-2 0-4 0-6l-9-6c-2-1-2-4-1-6l5-11c1-2 3-3 5-2l11 2c1-1 2-2 3-3l-1-11c-1-2 1-4 3-5l11-4c2-1 5 0 6 2l5 10c2-1 4 0 6 0l6-9c1-2 4-3 6-2l11 6c2 1 3 3 2 5l-3 11c2 1 3 2 4 3l11-1c2-1 4 1 5 3l4 11c1 2 0 5-2 6z m-27-2c-5-12-18-18-30-14-12 5-18 18-14 29 5 12 18 19 30 15 12-5 18-18 14-30z"/>
<glyph glyph-name="partners-matching" unicode="&#110;" d="M229 282c0-26-21-47-47-47-26 0-47 21-47 47 0 26 21 47 47 47 26 0 47-21 47-47z m18-83c0 16-13 29-29 29l-75 0c-16 0-28-13-28-29l0-46c0-16 12-29 28-29l75 0c16 0 29 13 29 29z m130 83c0-26-21-47-47-47-26 0-47 21-47 47 0 26 21 47 47 47 26 0 47-21 47-47z m20-83c0 16-12 29-28 29l-75 0c-16 0-29-13-29-29l0-46c0-16 13-29 29-29l75 0c16 0 28 13 28 29z m-88 162c0 21-17 38-38 38-6 0-11-2-16-4-5 2-10 4-16 4-21 0-38-17-38-38 0-21 17-38 38-38 6 0 11 1 16 4 5-3 10-4 16-4 21 0 38 17 38 38z m-67-24c-1-1-2-1-3-1-14 0-25 11-25 25 0 13 11 24 25 24 1 0 2 0 3 0-6-7-9-15-9-24 0-9 3-18 9-24z m13 5c-5 5-9 11-9 19 0 7 4 14 9 18 5-4 8-11 8-18 0-8-3-14-8-19z m13 43c1 0 2 0 3 0 13 0 24-11 24-24 0-14-11-25-24-25-1 0-2 0-3 1 5 6 9 15 9 24 0 9-4 17-9 24z"/>
<glyph glyph-name="profile" unicode="&#111;" d="M256 227c-46 0-86-33-103-80 19-26 58-43 103-43 45 0 84 17 103 43-17 47-57 80-103 80z m-7 27c3 0 5 0 7 0 2 0 4 0 7 0 40 3 72 38 72 81 0 44-36 81-79 81-43 0-79-37-79-81 0-43 32-78 72-81z"/>
<glyph glyph-name="region" unicode="&#112;" d="M331 284c-9 0-19 0-29 0-7 38-22 60-41 79-1 1-2 2-3 2-4 2-9 2-13-2-4-4-4-11 0-16 5-4 9-10 13-15 9-14 17-29 21-48-7 0-14 0-21 0-26 0-53 0-79 0 6 29 18 48 34 63 4 5 4 12 0 16-4 5-11 5-16 0-19-19-33-41-41-79-15 0-32 0-51 0-19 0-19-19 0-19 0 0 22 0 48 0-3-18-3-37 0-56-15 0-29 0-48 0-19 0-19-28 0-28 0 0 24 0 53 0 7-29 19-53 38-77 2-3 5-5 8-5 3 0 5 1 7 3 5 3 6 10 2 15-15 20-26 45-32 64 24 0 51 0 77 0 6 0 13 0 19 0-4-10-11-30-19-44-4-7-8-13-13-20-4-5-3-12 2-15 2-2 5-3 7-3 1 0 3 1 4 1 2 1 3 2 5 4 18 24 30 48 37 77 12 0 22 0 31 0 19 0 19 28 0 28-9 0-17 0-26 0 3 19 3 38 0 56 10 0 17 0 26 0 19 0 19 19 0 19z m-48-75c-8 0-17 0-25 0-28 0-56 0-83 0-3 19-3 38 0 56 25 0 54 0 83 0 8 0 17 0 25 0 3-18 3-37 0-56z m83 185c-6 1-13-2-15-8-2-6 2-12 8-14 1 0 2 0 2 0 6-1 11 2 13 7 2 6-2 13-8 15z m34 6c-5 9-13 15-23 18l-4 1c-10 3-20 2-30-2-9-4-16-12-19-21 0 0-1-2-2-4-2-7-10-44 7-89 0-2 1-3 1-3l2-4 4 2c0 0 1 0 3 2 42 27 59 62 62 68 1 2 1 4 1 4 4 9 3 19-2 28z m-13-23c0-1 0-2-1-3-1-4-14-31-46-55-11 37-3 66-2 70 0 1 0 2 1 2 3 10 13 16 24 15 1 0 3-1 5-1l4-1c6-2 11-6 14-11 3-5 3-11 1-16z"/>
<glyph glyph-name="region-setting" unicode="&#113;" d="M363 358c-2-5-8-8-14-6-5 2-8 8-6 13 2 6 8 9 13 6 6-1 9-8 7-13z m42-3l-10 6c0 2-1 4-1 6l10 6c2 2 2 4 1 6l-5 12c-1 2-4 3-6 3l-11-3c-1 1-3 2-4 4l1 11c1 2-1 4-3 5l-12 5c-2 0-5-1-6-2l-6-11c-2 0-3 0-5 0l-7 9c-1 2-4 3-6 2l-12-5c-2-2-3-4-2-6l3-11c-2-2-3-3-4-4l-11 1c-3 1-5-1-6-3l-4-12c-1-2 0-5 2-6l10-6c0-2 0-3 0-5l-9-7c-2-1-3-4-1-6l5-12c1-2 3-3 6-2l11 2c1-1 2-2 4-3l-2-11c-1-3 1-5 3-6l12-4c2-1 5 0 6 2l6 10c2 0 4 0 6 0l6-9c2-2 4-3 7-2l11 6c2 1 3 3 3 5l-3 11c1 2 2 3 4 5l11-2c2 0 5 1 5 3l5 12c1 2-1 5-2 6z m-29-2c-5-12-19-19-31-14-13 4-20 18-15 31 4 12 18 19 31 15 13-5 19-19 15-32z m-174-259c-3 0-7 1-9 4-72 90-57 210 2 267 4 4 12 4 16 0 5-5 5-12 0-17-51-49-63-156 0-236 4-5 3-12-2-16-2-1-4-2-7-2z m53 0c-2 0-5 1-7 2-5 4-6 11-2 16 63 80 51 187 0 236-5 5-5 12 0 17 4 4 12 4 16 0 59-57 74-177 2-267-2-3-5-4-9-4z m-143 79c0 0 157 0 230 0 25 0 25 23 0 23-73 0-157 0-230 0-12 0-12-23 0-23 0 0-12 0 0 0z m0 82c0 0 157 0 230 0 25 0 25 24 0 24-73 0-157 0-230 0-12 0-12-24 0-24 0 0-12 0 0 0z"/>
<glyph glyph-name="sessions" unicode="&#114;" d="M105 388l0-57-14 0c-4 0-6-5-6-9 0-4 2-9 6-9l14 0 0-48-14 0c-4 0-6-5-6-9 0-4 2-9 6-9l14 0 0-48-14 0c-4 0-6-5-6-9 0-4 2-9 6-9l14 0 0-76 283 0 0 283z m264-264l-245 0 0 57 16 0c3 0 6 5 6 9 0 4-3 9-6 9l-16 0 0 48 16 0c3 0 6 5 6 9 0 4-3 9-6 9l-16 0 0 48 16 0c3 0 6 5 6 9 0 4-3 9-6 9l-16 0 0 38 245 0z m-170 75l142 0 0-28-142 0z m-37 0l28 0 0-28-28 0z m37 70l142 0 0-26-142 0z m-37 0l28 0 0-26-28 0z m37 72l142 0 0-28-142 0z m-37 0l28 0 0-28-28 0z"/>
<glyph glyph-name="setting" unicode="&#115;" d="M287 255c0-17-14-31-31-31-17 0-31 14-31 31 0 17 14 31 31 31 17 0 31-14 31-31z m-31 71c-39 0-71-32-71-71 0-39 32-71 71-71 39 0 71 32 71 71 0 39-32 71-71 71z m0-128c-31 0-57 25-57 57 0 32 26 57 57 57 32 0 57-25 57-57 0-32-25-57-57-57z m149 90l-33 6c-2 5-4 10-6 15l19 28c4 6 3 14-2 19l-26 26c-5 5-13 6-19 2l-28-19c-5 2-10 4-15 6l-7 33c-1 7-7 12-14 12l-37 0c-7 0-13-5-15-12l-6-33c-5-2-10-4-15-6l-27 18c-6 4-14 4-19-1l-26-27c-5-5-6-13-2-18l19-28c-2-5-4-10-6-15l-33-6c-6-1-11-7-11-14l0-38c0-7 5-13 11-14l33-6c2-6 4-11 6-15l-19-28c-3-5-3-14 2-18l27-27c4-5 13-6 18-2l28 19c4-2 9-4 14-6l6-32c2-7 8-11 15-11l37 0c7 0 13 4 14 11l7 32c5 2 10 4 15 6l28-19c6-4 14-3 18 2l27 26c5 5 6 13 2 19l-19 27c2 5 4 10 6 16l33 6c6 1 11 7 11 14l0 38c0 6-5 13-11 14z m-3-52l-41-8-1-4c-2-8-5-14-9-21l-2-4 24-35-27-27-35 24-4-2c-6-3-13-6-20-8l-4-1-9-42-38 0-8 42-4 1c-7 2-13 5-19 8l-4 2-35-23-27 27 23 35-2 3c-3 7-6 14-8 21l-1 4-42 8 1 38 41 8 1 4c2 7 5 14 8 20l2 4-23 35 27 27 34-24 4 2c6 4 13 7 20 9l4 1 9 42 38-1 8-41 4-1c7-2 14-5 20-9l4-2 36 24 26-27-23-35 2-4c3-6 6-13 8-20l1-4 41-8 2 7z"/>
<glyph glyph-name="student" unicode="&#116;" d="M190 345c0 0 35 19 70 18 36 0 71-18 71-18l0-10c10 7 25 14 38 21-4 2-9 4-13 6-34 18-68 36-102 54l-107-58 43-18z m120-22c3-1 6-2 9-2l0 21c0 0-31 16-63 16-32 1-63-16-63-16l0-21c2 1 5 1 8 2 15 3 34 6 55 6 21 0 40-3 54-6z m-124-41c0-37 31-66 70-66 38 0 69 29 69 66 0 8-1 16-5 24-13 4-37 9-64 9-27 0-52-5-65-9-3-7-5-15-5-24z m70-88c-41 0-77-26-92-65 17-21 52-35 92-35 40 0 75 14 92 35-15 38-51 65-92 65z"/>
<glyph glyph-name="supplier-approval" unicode="&#117;" d="M361 373l0-264-210 0 0 264 210 0m3 14l-216 0c-6 0-12-5-12-11l0-270c0-6 6-12 12-12l216 0c6 0 12 6 12 12l0 270c0 6-6 11-12 11z m-163 10l110 0 0-32-110 0z m131-91l-152 0c-4 0-7 3-7 7 0 4 3 8 7 8l152 0c4 0 7-4 7-8 0-4-3-7-7-7z m0-26l-152 0c-4 0-7 3-7 7 0 4 3 7 7 7l152 0c4 0 7-3 7-7 0-4-3-7-7-7z m0-26l-152 0c-4 0-7 3-7 7 0 4 3 7 7 7l152 0c4 0 7-3 7-7 0-4-3-7-7-7z m-83-94c-1 0-3 0-5 2-2 3-2 7 0 10l27 26c3 3 7 3 10 0 3-2 3-7 0-10l-26-26c-2-2-4-2-6-2z m0 0c-1 0-3 0-5 2l-13 13c-3 3-3 8 0 10 3 3 7 3 10 0l14-13c2-3 2-7 0-10-2-2-4-2-6-2z m7 66c25 0 46-21 46-46 0-25-21-46-46-46-25 0-46 21-46 46 0 25 21 46 46 46m0 14c-33 0-60-27-60-60 0-33 27-60 60-60 33 0 60 27 60 60 0 33-27 60-60 60z m14 161c0-7-6-14-14-14-8 0-14 7-14 14 0 8 6 14 14 14 8 0 14-6 14-14z"/>
<glyph glyph-name="token-approval" unicode="&#118;" d="M240 288c-27 0-49-22-49-49 0-27 22-49 49-49 27 0 50 22 50 49 0 27-23 49-50 49z m31-43l-32-32c-2-1-4-2-6-2-3 0-5 1-7 2l-16 16c-4 4-4 10 0 14 3 3 9 3 13 0l10-10 25 25c4 4 9 4 13 0 4-3 4-9 0-13z m123 160l-140-6c-5 0-9-2-13-6l-72-72c-1-1-2-2-3-3 0 0 0 0 0-1l-63-60c-8-8-8-20 0-28l120-119c8-8 20-8 28 0l63 61c1 1 2 2 3 3 1 1 2 2 3 3l73 73c3 3 5 6 5 11l17 123c1 12-8 22-21 21z m-154-233c-37 0-67 30-67 67 0 38 30 68 67 68 38 0 68-30 68-68 0-37-30-67-68-67z m157 196c-2-10-11-17-21-15-11 1-17 10-16 20 2 11 11 17 21 16 10-2 17-11 16-21z"/>
<glyph glyph-name="token-request" unicode="&#119;" d="M391 304l-107 17c-4 1-8 0-11-2l-59-39c-2-1-3-1-4-2l-72-46c-9-6-12-16-8-23l73-109c5-7 16-8 25-2l72 45c0 1 0 1 1 1l64 42c3 2 5 5 6 8l32 90c3 9-3 18-12 20z m-4-29c-3-7-11-11-19-8-7 3-11 11-8 18 3 7 11 11 18 8 8-2 11-10 9-18z m-192 33c30 0 54 24 54 54 0 30-24 54-54 54-30 0-54-24-54-54 0-30 24-54 54-54z m0 91c21 0 37-17 37-37 0-21-16-37-37-37-20 0-37 16-37 37 0 20 17 37 37 37z m-5-58l9 0 0 19 19 0 0 9-19 0 0 19-9 0 0-19-19 0 0-9 19 0z"/>
</font>
</defs>
</svg>
