<svg id="Layer_1" data-name="Layer 1" xmlns="http://www.w3.org/2000/svg" viewBox="0 0 361.7 361.7"><defs><style>.cls-1{fill:#ebebeb;}.cls-2{fill:#144d80;}.cls-3{fill:#3ba9e4;}.cls-4{fill:#2b89b9;}</style></defs><title>convertoutlinedynedlive</title><circle class="cls-1" cx="186.2" cy="180.9" r="144"/><path class="cls-2" d="M200.5,372.7c-95.2,0-172.6-77.4-172.6-172.6S105.3,27.5,200.5,27.5s172.6,77.4,172.6,172.6S295.7,372.7,200.5,372.7Zm0-309c-75.2,0-136.4,61.2-136.4,136.4s61.2,136.4,136.4,136.4,136.4-61.2,136.4-136.4S275.7,63.7,200.5,63.7Z" transform="translate(-19.7 -19.2)"/><path class="cls-3" d="M200.5,35.7c90.7,0,164.4,73.7,164.4,164.4S291.2,364.5,200.5,364.5,36.1,290.7,36.1,200.1,109.9,35.7,200.5,35.7Zm0,309c79.8,0,144.6-64.9,144.6-144.6S280.3,55.5,200.5,55.5,55.9,120.3,55.9,200.1s64.9,144.6,144.6,144.6Zm0-325.5c-99.9,0-180.9,81-180.9,180.9S100.7,381,200.5,381A180.9,180.9,0,0,0,381.4,200.1c0-99.9-81-180.9-180.9-180.9Zm0,309A128.2,128.2,0,1,1,328.7,200.1,128.1,128.1,0,0,1,200.5,328.3Z" transform="translate(-19.7 -19.2)"/><rect class="cls-2" x="256.3" y="38.2" width="16.7" height="3.29" transform="translate(107 250) rotate(-67.5)"/><rect class="cls-2" x="238.6" y="65.6" width="29.5" height="3.29" transform="translate(74.7 256.5) rotate(-67.5)"/><rect class="cls-2" x="358.7" y="254.6" width="3.3" height="17.91" transform="translate(-40.5 476.6) rotate(-67.5)"/><rect class="cls-2" x="331.3" y="238" width="3.3" height="28.28" transform="translate(-47 444.2) rotate(-67.5)"/><rect class="cls-2" x="126.9" y="357.6" width="18.4" height="3.29" transform="translate(-267.5 328.2) rotate(-67.5)"/><rect class="cls-2" x="133.5" y="330.2" width="27.7" height="3.29" transform="translate(-235.3 322.1) rotate(-67.5)"/><rect class="cls-2" x="39.4" y="126.3" width="3.3" height="17.21" transform="translate(-118.8 100.9) rotate(-67.1)"/><rect class="cls-2" x="66.8" y="131.8" width="3.3" height="28.98" transform="translate(-112.5 134.5) rotate(-67.6)"/><rect class="cls-2" x="349.8" y="133.6" width="19" height="3.3" transform="translate(-44.2 125.8) rotate(-22.1)"/><rect class="cls-2" x="318.2" y="144.7" width="29" height="3.29" transform="translate(-50.4 123.6) rotate(-23.2)"/><rect class="cls-2" x="263.3" y="349.4" width="3.3" height="19.08" transform="translate(-137 109.7) rotate(-22.5)"/><rect class="cls-2" x="252.2" y="317.9" width="3.3" height="28.83" transform="translate(-127.6 103.4) rotate(-22.5)"/><rect class="cls-2" x="32.1" y="262.8" width="18.6" height="3.29" transform="translate(-117.7 16.8) rotate(-22.5)"/><rect class="cls-2" x="53.3" y="251.8" width="29.3" height="3.29" transform="translate(-111.5 26.1) rotate(-22.5)"/><rect class="cls-2" x="134.1" y="31.9" width="3.3" height="18.4" transform="translate(-25.1 35.9) rotate(-22.5)"/><rect class="cls-2" x="145.1" y="52.9" width="3.3" height="29.51" transform="translate(-34.4 42.1) rotate(-22.5)"/><g id="group-15"><g id="group"><g id="group-2"><g id="path"><path class="cls-2" d="M132.6,157.9s24.5-1,23.5,26c-1,23-23.5,22.5-23.5,22.5H114.3v-48h18.4Zm-11.2,5.6v36.8h12.3s14.8.5,15.8-16.8c.5-20.4-15.8-19.9-15.8-19.9Z" transform="translate(-19.7 -19.2)"/></g><g id="path-2"><path class="cls-2" d="M157.1,172.2l12.3,32.2-6.1,16.3h6.6l19.4-49h-6.6l-9.7,25-8.7-25h-7.1Z" transform="translate(-19.7 -19.2)"/></g><g id="path-3"><path class="cls-2" d="M190.8,172.2v33.7H197V181.3s2.6-4.6,9.2-4.6,8.7,4.6,8.7,8.2v20.9h6.1V185.4s.5-14.3-13.3-14.3c-8.2,0-11.7,4.6-11.7,4.6l-1-3.6h-4.1Z" transform="translate(-19.7 -19.2)"/></g></g><g id="path-4"><path class="cls-4" d="M254.1,163.5v-5.6H224.5v48h30.1v-5.6H231.2V183.9H248v-5.6H231.2V164Z" transform="translate(-19.7 -19.2)"/></g><g id="path-5"><path class="cls-4" d="M280.7,157.9v17.9h0a13.6,13.6,0,0,0-10.2-4.6c-8.2,0-15.3,7.7-15.3,17.4s6.6,17.9,15.3,17.9a12.9,12.9,0,0,0,10.2-4.6l.5,4.1h5.6v-48h-6.1Zm-9.2,43.4c-5.6,0-10.2-4.6-10.2-12.3s4.6-12.3,10.2-12.3,10.2,5.6,10.2,12.3S276.6,201.3,271.5,201.3Z" transform="translate(-19.7 -19.2)"/></g></g></g><path class="cls-2" d="M193.3,216.8h5.8v20.7h10.2v4.9h-16Z" transform="translate(-19.7 -19.2)"/><path class="cls-2" d="M226.1,216.8v25.6h-5.8V216.8Z" transform="translate(-19.7 -19.2)"/><path class="cls-2" d="M244.8,242.3l-8.2-25.6h6.3l3.1,10.8c.9,3,1.7,6,2.3,9.1h.1c.6-3.1,1.4-6.1,2.3-9l3.3-10.9h6.1l-8.6,25.6Z" transform="translate(-19.7 -19.2)"/><path class="cls-2" d="M285.7,231.5h-9.4v6.1h10.5v4.7H270.5V216.8h15.8v4.7h-10v5.3h9.4Z" transform="translate(-19.7 -19.2)"/></svg>