<?xml version="1.0" encoding="iso-8859-1"?>
<!-- Generator: Adobe Illustrator 19.2.1, SVG Export Plug-In . SVG Version: 6.00 Build 0)  -->
<svg version="1.1" xmlns="http://www.w3.org/2000/svg" xmlns:xlink="http://www.w3.org/1999/xlink" x="0px" y="0px"
	 viewBox="0 0 40 40" style="enable-background:new 0 0 40 40;" xml:space="preserve">
<g id="Day-Off-Approvals">
	<g>
		<g id="XMLID_40_">
			<path style="fill-rule:evenodd;clip-rule:evenodd;" d="M20,0c11.046,0,20,8.954,20,20s-8.954,20-20,20S0,31.046,0,20
				S8.954,0,20,0z M37.002,20c0-9.39-7.612-17.002-17.002-17.002C10.611,2.998,2.998,10.61,2.998,20
				c0,9.389,7.613,17.002,17.002,17.002C29.39,37.002,37.002,29.389,37.002,20z"/>
		</g>
		<g>
			<g>
				<g id="XMLID_39_">
					<path d="M10.115,22.511c0.023,0.268,0.061,0.53,0.115,0.787c0.642,3.091,3.38,5.415,6.663,5.415h6.447h0.487
						c2.555,0,4.743-1.568,5.656-3.794c-2.262,0.261-4.772,0.329-7.406,0.169c-2.963-0.18-5.737-0.631-8.15-1.275
						C12.524,23.44,11.24,23.002,10.115,22.511z"/>
				</g>
				<g>
					<rect x="18.839" y="14.9" transform="matrix(0.9865 -0.1637 0.1637 0.9865 -3.2151 3.4536)" width="1.006" height="12.659"/>
				</g>
			</g>
			<g>
				<g>
					<path d="M18.468,15.333l-0.058,0.012c-0.22,0.045-0.435-0.097-0.48-0.318l-0.651-3.196c-0.045-0.22,0.097-0.435,0.318-0.48
						l0.058-0.012c0.22-0.045,0.435,0.097,0.48,0.318l0.651,3.196C18.831,15.074,18.688,15.289,18.468,15.333z"/>
				</g>
				<g id="XMLID_38_">
					<path d="M26.693,16.436l-14.669,2.073c0.39-2.903,3.712-5.169,7.753-5.169C22.784,13.34,25.395,14.596,26.693,16.436z"/>
				</g>
			</g>
		</g>
	</g>
</g>
<g id="Layer_1">
</g>
</svg>
