<?xml version="1.0" encoding="utf-8"?>
<!-- Generator: Adobe Illustrator 19.2.1, SVG Export Plug-In . SVG Version: 6.00 Build 0)  -->
<svg version="1.1" id="Layer_1" xmlns="http://www.w3.org/2000/svg" xmlns:xlink="http://www.w3.org/1999/xlink" x="0px" y="0px"
	 viewBox="0 0 16 16" style="enable-background:new 0 0 16 16;" xml:space="preserve">
<style type="text/css">
	.st0{fill:#ebebeb;}
</style>
<g>
	<path class="st0" d="M2.7,14.1c0,0,0,0.3,0.3,0.3c0.4,0,3.7,0,3.7,0l0-3c0,0-0.1-0.5,0.4-0.5h1.5c0.6,0,0.5,0.5,0.5,0.5l0,3
		c0,0,3.1,0,3.6,0c0.4,0,0.4-0.4,0.4-0.4V8.5L8.1,4L2.7,8.5L2.7,14.1z"/>
	<path class="st0" d="M0.7,8.1c0,0,0.5,0.8,1.5,0l5.9-5l5.6,5c1.2,0.8,1.6,0,1.6,0L8.1,1.5L0.7,8.1z"/>
	<polygon class="st0" points="13.6,3 12.1,3 12.1,4.8 13.6,6 	"/>
</g>
</svg>
