<svg xmlns="http://www.w3.org/2000/svg" viewBox="240 369.373 118.414 113.789"><defs><style>.a{fill:#d8dce1;}.b{fill:#ff4f19;}.c{fill:#fff;}.d{fill:#5c546a;}.e{fill:#ffd200;}.f{fill:#ff9600;}</style></defs><g transform="translate(240 367.06)"><path class="a" d="M0,30.991v75.859A9.262,9.262,0,0,0,9.251,116.1h99.912a9.262,9.262,0,0,0,9.251-9.251V30.991Z"/><path class="b" d="M109.163,5.088H9.251A9.262,9.262,0,0,0,0,14.339V30.991H118.414V14.339A9.262,9.262,0,0,0,109.163,5.088ZM14.8,23.59a5.551,5.551,0,1,1,5.551-5.551A5.551,5.551,0,0,1,14.8,23.59Zm88.811,0a5.551,5.551,0,1,1,5.551-5.551A5.551,5.551,0,0,1,103.613,23.59Z"/><path class="c" d="M59.207,47.643a7.4,7.4,0,1,0,7.4,7.4A7.408,7.408,0,0,0,59.207,47.643Z"/><path class="c" d="M40.7,47.643a7.4,7.4,0,1,0,7.4,7.4A7.408,7.408,0,0,0,40.7,47.643Z"/><path class="c" d="M22.2,47.643a7.4,7.4,0,1,0,7.4,7.4A7.408,7.408,0,0,0,22.2,47.643Z"/><path class="c" d="M77.709,47.643a7.4,7.4,0,1,0,7.4,7.4A7.408,7.408,0,0,0,77.709,47.643Z"/><path class="c" d="M96.212,62.445a7.4,7.4,0,1,0-7.4-7.4A7.408,7.408,0,0,0,96.212,62.445Z"/><path class="c" d="M59.207,66.146a7.4,7.4,0,1,0,7.4,7.4A7.408,7.408,0,0,0,59.207,66.146Z"/><path class="c" d="M40.7,66.146a7.4,7.4,0,1,0,7.4,7.4A7.408,7.408,0,0,0,40.7,66.146Z"/><path class="c" d="M22.2,66.146a7.4,7.4,0,1,0,7.4,7.4A7.408,7.408,0,0,0,22.2,66.146Z"/><path class="c" d="M77.709,66.146a7.4,7.4,0,1,0,7.4,7.4A7.408,7.408,0,0,0,77.709,66.146Z"/><path class="c" d="M96.212,66.146a7.4,7.4,0,1,0,7.4,7.4A7.408,7.408,0,0,0,96.212,66.146Z"/><path class="c" d="M59.207,84.648a7.4,7.4,0,1,0,7.4,7.4A7.408,7.408,0,0,0,59.207,84.648Z"/><path class="c" d="M40.7,84.648a7.4,7.4,0,1,0,7.4,7.4A7.408,7.408,0,0,0,40.7,84.648Z"/><path class="c" d="M22.2,84.648a7.4,7.4,0,1,0,7.4,7.4A7.408,7.408,0,0,0,22.2,84.648Z"/><path class="c" d="M77.709,84.648a7.4,7.4,0,1,0,7.4,7.4A7.408,7.408,0,0,0,77.709,84.648Z"/><path class="c" d="M96.212,84.648a7.4,7.4,0,1,0,7.4,7.4A7.408,7.408,0,0,0,96.212,84.648Z"/><path class="d" d="M14.8,20.815a2.775,2.775,0,0,1-2.775-2.775V5.088a2.775,2.775,0,1,1,5.551,0V18.04A2.775,2.775,0,0,1,14.8,20.815Z"/><path class="d" d="M103.613,20.815a2.775,2.775,0,0,1-2.775-2.775V5.088a2.775,2.775,0,0,1,5.551,0V18.04A2.775,2.775,0,0,1,103.613,20.815Z"/><circle class="e" cx="7.401" cy="7.401" r="7.401" transform="translate(14.802 47.643)"/><circle class="f" cx="7.401" cy="7.401" r="7.401" transform="translate(51.806 84.648)"/><circle class="b" cx="7.401" cy="7.401" r="7.401" transform="translate(70.309 66.146)"/></g></svg>