<svg xmlns="http://www.w3.org/2000/svg" viewBox="962 367.06 111.014 118.414"><defs><style>.a{fill:#b9bbc1;}.b{fill:#d8dce1;}.c{fill:#5c546a;}.d{fill:#8b8996;}.e{fill:#ffd200;}.f{fill:#ff9600;}</style></defs><g transform="translate(958.3 367.06)"><path class="a" d="M96.212,0H14.8a3.7,3.7,0,0,0-3.7,3.7V107.313a3.705,3.705,0,0,0,3.7,3.7h81.41a3.705,3.705,0,0,0,3.7-3.7V3.7A3.7,3.7,0,0,0,96.212,0Z"/><path class="b" d="M88.811,7.4H7.4a3.7,3.7,0,0,0-3.7,3.7V114.714a3.705,3.705,0,0,0,3.7,3.7h81.41a3.705,3.705,0,0,0,3.7-3.7V11.1A3.7,3.7,0,0,0,88.811,7.4Z"/><path class="c" d="M75.859,27.753H16.652a1.85,1.85,0,1,1,0-3.7H75.859a1.85,1.85,0,0,1,0,3.7Z"/><path class="d" d="M75.859,49.956H16.652a1.85,1.85,0,1,1,0-3.7H75.859a1.85,1.85,0,0,1,0,3.7Z"/><path class="a" d="M75.859,101.762H16.652a1.85,1.85,0,0,1,0-3.7H75.859a1.85,1.85,0,0,1,0,3.7Z"/><path class="d" d="M75.859,72.159H16.652a1.85,1.85,0,0,1,0-3.7H75.859a1.85,1.85,0,0,1,0,3.7Z"/><path class="c" d="M31.454,35.154h-14.8a1.85,1.85,0,1,1,0-3.7h14.8a1.85,1.85,0,1,1,0,3.7Z"/><path class="c" d="M75.859,35.154h-37a1.85,1.85,0,0,1,0-3.7h37a1.85,1.85,0,0,1,0,3.7Z"/><path class="d" d="M61.057,42.555H16.652a1.85,1.85,0,0,1,0-3.7H61.057a1.85,1.85,0,0,1,0,3.7Z"/><path class="d" d="M75.859,42.555h-7.4a1.85,1.85,0,0,1,0-3.7h7.4a1.85,1.85,0,0,1,0,3.7Z"/><path class="a" d="M75.859,94.362H16.652a1.85,1.85,0,0,1,0-3.7H75.859a1.85,1.85,0,0,1,0,3.7Z"/><path class="d" d="M31.454,79.56h-14.8a1.85,1.85,0,1,1,0-3.7h14.8a1.85,1.85,0,1,1,0,3.7Z"/><path class="a" d="M75.859,79.56h-37a1.85,1.85,0,1,1,0-3.7h37a1.85,1.85,0,0,1,0,3.7Z"/><path class="a" d="M61.057,86.961H16.652a1.85,1.85,0,1,1,0-3.7H61.057a1.85,1.85,0,1,1,0,3.7Z"/><path class="a" d="M75.859,86.961h-7.4a1.85,1.85,0,0,1,0-3.7h7.4a1.85,1.85,0,0,1,0,3.7Z"/><path class="d" d="M40.7,57.357H16.652a1.85,1.85,0,1,1,0-3.7H40.7a1.85,1.85,0,1,1,0,3.7Z"/><path class="d" d="M75.859,57.357H48.106a1.85,1.85,0,0,1,0-3.7H75.859a1.85,1.85,0,0,1,0,3.7Z"/><path class="d" d="M55.507,64.758H16.652a1.85,1.85,0,1,1,0-3.7H55.507a1.85,1.85,0,0,1,0,3.7Z"/><path class="d" d="M75.859,64.758H62.908a1.85,1.85,0,0,1,0-3.7H75.859a1.85,1.85,0,0,1,0,3.7Z"/><path class="d" d="M103.613,103.613l3.778,12.595a1.85,1.85,0,0,0,3.544,0l3.779-12.595Z"/><circle class="d" cx="5.551" cy="5.551" r="5.551" transform="translate(103.613 35.154)"/><rect class="e" width="11.101" height="62.908" transform="translate(103.613 40.705)"/><rect class="f" width="5.551" height="62.908" transform="translate(103.613 40.705)"/><path class="c" d="M105.833,111.014l1.558,5.194a1.85,1.85,0,0,0,3.544,0l1.558-5.194Z"/></g></svg>