<?xml version="1.0" encoding="iso-8859-1"?>
<!-- Generator: Adobe Illustrator 19.2.1, SVG Export Plug-In . SVG Version: 6.00 Build 0)  -->
<svg version="1.1" xmlns="http://www.w3.org/2000/svg" xmlns:xlink="http://www.w3.org/1999/xlink" x="0px" y="0px"
	 viewBox="0 0 40 40" style="enable-background:new 0 0 40 40;" xml:space="preserve">
<g id="notification">
	<g>
		<path d="M19.616,12.4c0.258,0,0.514,0,0.772,0c0.028,0.006,0.052,0.018,0.08,0.022c0.978,0.089,1.851,0.44,2.611,1.058
			c1.208,0.984,1.867,2.263,1.903,3.822c0.034,1.359,0.009,2.721,0.012,4.081c0,0.083,0.022,0.175,0.058,0.252
			c0.44,0.901,0.883,1.799,1.325,2.694c0.203,0.409,0.406,0.818,0.609,1.224c0,0.009,0,0.015,0,0.025c-1.479,0-2.958,0-4.44-0.003
			c-0.08,0-0.105,0.028-0.123,0.101c-0.255,0.935-0.839,1.556-1.774,1.839c-0.126,0.037-0.255,0.058-0.384,0.086
			c-0.175,0-0.354,0-0.529,0c-0.018-0.006-0.037-0.018-0.055-0.022c-1.113-0.188-1.802-0.843-2.103-1.916
			c-0.022-0.077-0.055-0.089-0.123-0.089c-1.479,0.003-2.958,0.003-4.44,0.003c0-0.009,0-0.015,0-0.025
			c0.012-0.022,0.028-0.04,0.037-0.062c0.64-1.301,1.282-2.601,1.919-3.902c0.028-0.055,0.037-0.123,0.037-0.185
			c0.003-1.279,0.003-2.561,0-3.841c0-0.489,0.037-0.972,0.178-1.439c0.59-1.94,1.86-3.167,3.853-3.629
			C19.225,12.452,19.422,12.431,19.616,12.4z M14.52,24.556c3.662,0,7.303,0,10.959,0c-0.028-0.058-0.049-0.105-0.071-0.151
			c-0.452-0.919-0.907-1.839-1.356-2.761c-0.037-0.077-0.058-0.166-0.058-0.252c-0.003-1.301-0.003-2.601-0.003-3.902
			c0-0.366-0.046-0.729-0.138-1.082c-0.501-1.913-2.319-3.183-4.287-2.964c-1.245,0.138-2.214,0.763-2.903,1.805
			c-0.446,0.677-0.655,1.43-0.655,2.242c0,1.298,0,2.592-0.003,3.89c0,0.092-0.025,0.191-0.065,0.274
			c-0.449,0.919-0.901,1.833-1.353,2.749C14.57,24.451,14.548,24.497,14.52,24.556z M21.39,25.586c-0.932,0-1.854,0-2.78,0
			c0.169,0.572,0.778,1.009,1.39,1.006C20.63,26.585,21.227,26.155,21.39,25.586z"/>
		<g id="XMLID_17_">
			<path style="fill-rule:evenodd;clip-rule:evenodd;" d="M20,0c11.046,0,20,8.954,20,20s-8.954,20-20,20S0,31.046,0,20
				S8.954,0,20,0z M37.002,20c0-9.39-7.612-17.002-17.002-17.002C10.611,2.998,2.998,10.61,2.998,20
				c0,9.389,7.613,17.002,17.002,17.002C29.39,37.002,37.002,29.389,37.002,20z"/>
		</g>
	</g>
</g>
<g id="Layer_1">
</g>
</svg>
