<?xml version="1.0" encoding="iso-8859-1"?>
<!-- Generator: Adobe Illustrator 19.2.1, SVG Export Plug-In . SVG Version: 6.00 Build 0)  -->
<svg version="1.1" xmlns="http://www.w3.org/2000/svg" xmlns:xlink="http://www.w3.org/1999/xlink" x="0px" y="0px"
	 viewBox="0 0 40 40" style="enable-background:new 0 0 40 40;" xml:space="preserve">
<g id="Partner">
	<g>
		<g id="XMLID_8_">
			<path style="fill-rule:evenodd;clip-rule:evenodd;" d="M20,0c11.046,0,20,8.954,20,20s-8.954,20-20,20S0,31.046,0,20
				S8.954,0,20,0z M37.002,20c0-9.39-7.612-17.002-17.002-17.002C10.611,2.998,2.998,10.61,2.998,20
				c0,9.389,7.613,17.002,17.002,17.002C29.39,37.002,37.002,29.389,37.002,20z"/>
		</g>
		<g>
			<g>
				<circle cx="15.188" cy="16.185" r="3.043"/>
			</g>
			<path d="M16.512,26.858h-2.65c-1.679,0-3.041-1.361-3.041-3.041v-0.831c0-1.679,1.361-3.041,3.041-3.041h2.65
				c1.679,0,3.041,1.361,3.041,3.041v0.831C19.553,25.497,18.192,26.858,16.512,26.858z"/>
			<g>
				<circle cx="24.812" cy="16.185" r="3.043"/>
			</g>
			<path d="M26.137,26.858h-2.65c-1.679,0-3.041-1.361-3.041-3.041v-0.831c0-1.679,1.361-3.041,3.041-3.041h2.65
				c1.679,0,3.041,1.361,3.041,3.041v0.831C29.178,25.497,27.817,26.858,26.137,26.858z"/>
		</g>
	</g>
</g>
<g id="Layer_1">
</g>
</svg>
