<?xml version="1.0" encoding="iso-8859-1"?>
<!-- Generator: Adobe Illustrator 19.2.1, SVG Export Plug-In . SVG Version: 6.00 Build 0)  -->
<svg version="1.1" xmlns="http://www.w3.org/2000/svg" xmlns:xlink="http://www.w3.org/1999/xlink" x="0px" y="0px"
	 viewBox="0 0 40 40" style="enable-background:new 0 0 40 40;" xml:space="preserve">
<g id="Partner-Setting">
	<g>
		<g>
			<g>
				<circle cx="15.188" cy="18.85" r="3.043"/>
			</g>
			<path d="M16.512,29.522h-2.65c-1.679,0-3.041-1.361-3.041-3.041v-0.831c0-1.679,1.361-3.041,3.041-3.041h2.65
				c1.679,0,3.041,1.361,3.041,3.041v0.831C19.553,28.161,18.192,29.522,16.512,29.522z"/>
			<g>
				<circle cx="24.812" cy="18.85" r="3.043"/>
			</g>
			<path d="M26.137,29.522h-2.65c-1.679,0-3.041-1.361-3.041-3.041v-0.831c0-1.679,1.361-3.041,3.041-3.041h2.65
				c1.679,0,3.041,1.361,3.041,3.041v0.831C29.178,28.161,27.817,29.522,26.137,29.522z"/>
		</g>
		<g>
			<g>
				<g>
					<g>
						<ellipse transform="matrix(0.336 -0.9418 0.9418 0.336 2.471 26.4597)" cx="20.003" cy="11.477" rx="0.683" ry="0.683"/>
					</g>
					<g>
						<path d="M20.538,9.984c-0.829-0.285-1.732,0.136-2.029,0.965c-0.285,0.817,0.136,1.72,0.965,2.017
							c0.817,0.297,1.72-0.136,2.017-0.953C21.788,11.184,21.355,10.281,20.538,9.984z M21.194,11.902
							c-0.235,0.668-0.953,1.002-1.621,0.767c-0.656-0.235-1.002-0.965-0.767-1.621c0.235-0.656,0.965-1.002,1.621-0.767
							C21.095,10.516,21.429,11.246,21.194,11.902z M20.538,9.984c-0.829-0.285-1.732,0.136-2.029,0.965
							c-0.285,0.817,0.136,1.72,0.965,2.017c0.817,0.297,1.72-0.136,2.017-0.953C21.788,11.184,21.355,10.281,20.538,9.984z
							 M21.194,11.902c-0.235,0.668-0.953,1.002-1.621,0.767c-0.656-0.235-1.002-0.965-0.767-1.621
							c0.235-0.656,0.965-1.002,1.621-0.767C21.095,10.516,21.429,11.246,21.194,11.902z M20.538,9.984
							c-0.829-0.285-1.732,0.136-2.029,0.965c-0.285,0.817,0.136,1.72,0.965,2.017c0.817,0.297,1.72-0.136,2.017-0.953
							C21.788,11.184,21.355,10.281,20.538,9.984z M21.194,11.902c-0.235,0.668-0.953,1.002-1.621,0.767
							c-0.656-0.235-1.002-0.965-0.767-1.621c0.235-0.656,0.965-1.002,1.621-0.767C21.095,10.516,21.429,11.246,21.194,11.902z"/>
						<path d="M23.372,11.89l-0.643-0.371c0-0.124-0.012-0.235-0.025-0.359l0.606-0.433c0.124-0.099,0.173-0.272,0.111-0.408
							l-0.359-0.755c-0.074-0.136-0.235-0.21-0.384-0.173l-0.718,0.198c-0.087-0.087-0.186-0.173-0.285-0.247L21.8,8.598
							c0.012-0.148-0.074-0.297-0.223-0.346l-0.78-0.285c-0.148-0.049-0.309,0.012-0.384,0.136l-0.384,0.656
							c-0.124,0-0.235,0-0.346,0.012l-0.445-0.594c-0.087-0.124-0.26-0.173-0.396-0.099l-0.755,0.347
							c-0.136,0.074-0.21,0.235-0.173,0.384l0.186,0.718c-0.074,0.087-0.161,0.173-0.235,0.26l-0.73-0.111
							c-0.148-0.025-0.309,0.062-0.359,0.21l-0.285,0.78c-0.049,0.148,0.012,0.309,0.148,0.396l0.643,0.371
							c0,0.124,0,0.247,0.012,0.359l-0.594,0.433c-0.124,0.087-0.161,0.272-0.099,0.408l0.359,0.742
							c0.062,0.148,0.223,0.223,0.371,0.186l0.718-0.186c0.074,0.074,0.161,0.148,0.247,0.223l-0.111,0.742
							c-0.025,0.148,0.062,0.309,0.21,0.359l0.779,0.285c0.149,0.049,0.322-0.012,0.396-0.148l0.371-0.643
							c0.124,0.012,0.247,0,0.371-0.012l0.433,0.606c0.087,0.124,0.26,0.173,0.408,0.099l0.742-0.346
							c0.148-0.074,0.223-0.235,0.186-0.384l-0.198-0.718c0.087-0.087,0.173-0.173,0.247-0.272l0.742,0.111
							c0.148,0.025,0.297-0.062,0.346-0.21l0.285-0.78C23.557,12.149,23.496,11.976,23.372,11.89z M18.509,10.949
							c0.297-0.829,1.2-1.25,2.029-0.965c0.817,0.297,1.25,1.2,0.953,2.029c-0.297,0.817-1.2,1.25-2.017,0.953
							C18.645,12.669,18.224,11.766,18.509,10.949z"/>
					</g>
				</g>
			</g>
		</g>
		<g id="XMLID_12_">
			<path style="fill-rule:evenodd;clip-rule:evenodd;" d="M20,0c11.046,0,20,8.954,20,20s-8.954,20-20,20S0,31.046,0,20
				S8.954,0,20,0z M37.002,20c0-9.39-7.612-17.002-17.002-17.002C10.611,2.998,2.998,10.61,2.998,20
				c0,9.389,7.613,17.002,17.002,17.002C29.39,37.002,37.002,29.389,37.002,20z"/>
		</g>
	</g>
</g>
<g id="Layer_1">
</g>
</svg>
