<?xml version="1.0" encoding="iso-8859-1"?>
<!-- Generator: Adobe Illustrator 19.2.1, SVG Export Plug-In . SVG Version: 6.00 Build 0)  -->
<svg version="1.1" xmlns="http://www.w3.org/2000/svg" xmlns:xlink="http://www.w3.org/1999/xlink" x="0px" y="0px"
	 viewBox="0 0 40 40" style="enable-background:new 0 0 40 40;" xml:space="preserve">
<g id="Profile">
	<g id="XMLID_45_">
		<path style="fill-rule:evenodd;clip-rule:evenodd;" d="M26.234,35.823c-1.93,0.761-4.033,1.179-6.234,1.179
			c-2.2,0-4.303-0.419-6.234-1.179C7.461,33.336,2.998,27.188,2.998,20c0-9.39,7.613-17.002,17.002-17.002
			c9.39,0,17.002,7.612,17.002,17.002C37.002,27.188,32.541,33.336,26.234,35.823z M22.235,39.876C21.501,39.959,20.756,40,20,40
			s-1.501-0.041-2.235-0.124C7.771,38.766,0,30.29,0,20C0,8.954,8.954,0,20,0s20,8.954,20,20C40,30.29,32.229,38.766,22.235,39.876z
			"/>
		<path d="M26.357,29.417c-1.154,1.525-3.566,2.574-6.357,2.574s-5.203-1.05-6.357-2.574c1.047-2.811,3.5-4.783,6.357-4.783
			S25.31,26.606,26.357,29.417z"/>
		<path d="M20.22,13.339c2.682,0,4.856,2.174,4.856,4.856c0,2.544-1.958,4.632-4.449,4.837c-0.135-0.004-0.271-0.007-0.407-0.007
			c-0.137,0-0.272,0.003-0.407,0.007c-2.491-0.206-4.449-2.294-4.449-4.837C15.363,15.514,17.538,13.339,20.22,13.339z"/>
	</g>
</g>
<g id="Layer_1">
</g>
</svg>
