<?xml version="1.0" encoding="iso-8859-1"?>
<!-- Generator: Adobe Illustrator 19.2.1, SVG Export Plug-In . SVG Version: 6.00 Build 0)  -->
<svg version="1.1" xmlns="http://www.w3.org/2000/svg" xmlns:xlink="http://www.w3.org/1999/xlink" x="0px" y="0px"
	 viewBox="0 0 40 40" style="enable-background:new 0 0 40 40;" xml:space="preserve">
<g id="Region-Setting">
	<g>
		<g>
			<g>
				<g>
					<g>
						<g>
							<ellipse transform="matrix(0.336 -0.9418 0.9418 0.336 7.8908 34.1462)" cx="28.164" cy="11.476" rx="0.436" ry="0.436"/>
						</g>
						<g>
							<path d="M28.506,10.523c-0.529-0.182-1.106,0.087-1.295,0.616c-0.182,0.521,0.087,1.098,0.616,1.287
								c0.521,0.19,1.098-0.087,1.287-0.608C29.304,11.289,29.027,10.713,28.506,10.523z M28.925,11.748
								c-0.15,0.426-0.608,0.64-1.035,0.49c-0.419-0.15-0.64-0.616-0.49-1.035c0.15-0.419,0.616-0.64,1.035-0.49
								C28.862,10.863,29.075,11.329,28.925,11.748z M28.506,10.523c-0.529-0.182-1.106,0.087-1.295,0.616
								c-0.182,0.521,0.087,1.098,0.616,1.287c0.521,0.19,1.098-0.087,1.287-0.608C29.304,11.289,29.027,10.713,28.506,10.523z
								 M28.925,11.748c-0.15,0.426-0.608,0.64-1.035,0.49c-0.419-0.15-0.64-0.616-0.49-1.035c0.15-0.419,0.616-0.64,1.035-0.49
								C28.862,10.863,29.075,11.329,28.925,11.748z M28.506,10.523c-0.529-0.182-1.106,0.087-1.295,0.616
								c-0.182,0.521,0.087,1.098,0.616,1.287c0.521,0.19,1.098-0.087,1.287-0.608C29.304,11.289,29.027,10.713,28.506,10.523z
								 M28.925,11.748c-0.15,0.426-0.608,0.64-1.035,0.49c-0.419-0.15-0.64-0.616-0.49-1.035c0.15-0.419,0.616-0.64,1.035-0.49
								C28.862,10.863,29.075,11.329,28.925,11.748z"/>
							<path d="M30.315,11.74l-0.411-0.237c0-0.079-0.008-0.15-0.016-0.229l0.387-0.276c0.079-0.063,0.111-0.174,0.071-0.261
								l-0.229-0.482c-0.047-0.087-0.15-0.134-0.245-0.111l-0.458,0.126c-0.055-0.055-0.118-0.111-0.182-0.158l0.079-0.474
								c0.008-0.095-0.047-0.19-0.142-0.221l-0.498-0.182c-0.095-0.032-0.197,0.008-0.245,0.087l-0.245,0.419
								c-0.079,0-0.15,0-0.221,0.008L27.677,9.37c-0.055-0.079-0.166-0.111-0.253-0.063l-0.482,0.221
								c-0.087,0.047-0.134,0.15-0.111,0.245l0.118,0.458c-0.047,0.055-0.103,0.111-0.15,0.166l-0.466-0.071
								c-0.095-0.016-0.197,0.04-0.229,0.134l-0.182,0.498c-0.032,0.095,0.008,0.197,0.095,0.253l0.411,0.237
								c0,0.079,0,0.158,0.008,0.229l-0.379,0.276c-0.079,0.055-0.103,0.174-0.063,0.261l0.229,0.474
								c0.039,0.095,0.142,0.142,0.237,0.118l0.458-0.118c0.047,0.047,0.103,0.095,0.158,0.142l-0.071,0.474
								c-0.016,0.095,0.039,0.197,0.134,0.229l0.497,0.182c0.095,0.032,0.205-0.008,0.253-0.095l0.237-0.411
								c0.079,0.008,0.158,0,0.237-0.008l0.276,0.387c0.055,0.079,0.166,0.111,0.261,0.063l0.474-0.221
								c0.095-0.047,0.142-0.15,0.118-0.245l-0.126-0.458c0.055-0.055,0.111-0.111,0.158-0.174l0.474,0.071
								c0.095,0.016,0.19-0.039,0.221-0.134l0.182-0.498C30.433,11.905,30.394,11.795,30.315,11.74z M27.211,11.139
								c0.19-0.529,0.766-0.798,1.295-0.616c0.521,0.19,0.798,0.766,0.608,1.295c-0.19,0.521-0.766,0.798-1.287,0.608
								C27.298,12.237,27.029,11.661,27.211,11.139z"/>
						</g>
					</g>
				</g>
			</g>
			<g>
				<g>
					<g>
						<path d="M17.092,32.333c-0.299,0-0.596-0.134-0.792-0.39c-6.029-7.825-4.778-18.333,0.172-23.238
							c0.393-0.387,1.025-0.387,1.414,0.007c0.389,0.392,0.386,1.025-0.007,1.414c-4.345,4.305-5.38,13.608,0.004,20.597
							c0.337,0.438,0.256,1.065-0.182,1.402C17.521,32.266,17.306,32.333,17.092,32.333z"/>
					</g>
				</g>
				<g>
					<g>
						<path d="M21.582,32.333c-0.213,0-0.428-0.067-0.609-0.208c-0.438-0.337-0.519-0.965-0.182-1.402
							c5.385-6.988,4.35-16.292,0.004-20.597c-0.392-0.389-0.395-1.022-0.006-1.414c0.388-0.393,1.021-0.396,1.414-0.007
							c4.951,4.905,6.201,15.413,0.172,23.238C22.177,32.199,21.882,32.333,21.582,32.333z"/>
					</g>
				</g>
				<g>
					<g>
						<g>
							<g>
								<path d="M9,25c0,0,14,0,20,0c2,0,2-2,0-2c-6,0-13,0-20,0C8,23,8,25,9,25C9,25,8,25,9,25z"/>
							</g>
						</g>
					</g>
					<g>
						<g>
							<g>
								<path d="M9,18c0,0,14,0,20,0c2,0,2-2,0-2c-6,0-13,0-20,0C8,16,8,18,9,18C9,18,8,18,9,18z"/>
							</g>
						</g>
					</g>
				</g>
			</g>
		</g>
		<g id="XMLID_11_">
			<path style="fill-rule:evenodd;clip-rule:evenodd;" d="M20,0c11.046,0,20,8.954,20,20s-8.954,20-20,20S0,31.046,0,20
				S8.954,0,20,0z M37.002,20c0-9.39-7.612-17.002-17.002-17.002C10.611,2.998,2.998,10.61,2.998,20
				c0,9.389,7.613,17.002,17.002,17.002C29.39,37.002,37.002,29.389,37.002,20z"/>
		</g>
	</g>
</g>
<g id="Layer_1">
</g>
</svg>
