<?xml version="1.0" encoding="iso-8859-1"?>
<!-- Generator: Adobe Illustrator 19.2.1, SVG Export Plug-In . SVG Version: 6.00 Build 0)  -->
<svg version="1.1" xmlns="http://www.w3.org/2000/svg" xmlns:xlink="http://www.w3.org/1999/xlink" x="0px" y="0px"
	 viewBox="0 0 40 40" style="enable-background:new 0 0 40 40;" xml:space="preserve">
<g id="Student">
	<g>
		<g>
			<g>
				<g>
					<path d="M15.897,13.802l-0.016,2.413c0,0,2.32-0.949,4.372-0.935c2.052,0.014,4.36,0.993,4.36,0.993l0.016-2.447
						c0,0-2.2-1.182-4.393-1.197C18.045,12.614,15.897,13.802,15.897,13.802z"/>
					<path d="M27.084,13.301l0.871-0.461l-0.865-0.487l-1.265-0.713l-5.709-3.216l-7.558,4.26l2.835,1.311l0.003-0.419
						c0,0,2.395-1.324,4.84-1.308c2.445,0.016,4.897,1.334,4.897,1.334l-0.005,0.732l1.576-0.833L27.084,13.301L27.084,13.301z"/>
				</g>
			</g>
			<g>
				<g>
					<circle cx="20.227" cy="18.242" r="4.312"/>
					<path d="M20.227,14.429c2.102,0,3.812,1.71,3.812,3.812s-1.71,3.812-3.812,3.812s-3.812-1.71-3.812-3.812
						S18.125,14.429,20.227,14.429 M20.227,13.429c-2.658,0-4.812,2.155-4.812,4.812c0,2.658,2.155,4.812,4.812,4.812
						s4.812-2.155,4.812-4.812C25.039,15.584,22.884,13.429,20.227,13.429L20.227,13.429z"/>
				</g>
			</g>
		</g>
		<path d="M26.357,29.417c-1.154,1.525-3.566,2.574-6.357,2.574s-5.203-1.05-6.357-2.574c1.047-2.811,3.5-4.783,6.357-4.783
			S25.31,26.606,26.357,29.417z"/>
		<path style="fill-rule:evenodd;clip-rule:evenodd;" d="M26.234,35.823c-1.93,0.761-4.033,1.179-6.234,1.179
			c-2.2,0-4.303-0.419-6.234-1.179C7.461,33.336,2.998,27.188,2.998,20c0-9.39,7.613-17.002,17.002-17.002
			c9.39,0,17.002,7.612,17.002,17.002C37.002,27.188,32.541,33.336,26.234,35.823z M22.235,39.876C21.501,39.959,20.756,40,20,40
			s-1.501-0.041-2.235-0.124C7.771,38.766,0,30.29,0,20C0,8.954,8.954,0,20,0s20,8.954,20,20C40,30.29,32.229,38.766,22.235,39.876z
			"/>
	</g>
</g>
<g id="Layer_1">
</g>
</svg>
