<?xml version="1.0" encoding="iso-8859-1"?>
<!-- Generator: Adobe Illustrator 19.2.1, SVG Export Plug-In . SVG Version: 6.00 Build 0)  -->
<svg version="1.1" xmlns="http://www.w3.org/2000/svg" xmlns:xlink="http://www.w3.org/1999/xlink" x="0px" y="0px"
	 viewBox="0 0 50 50" style="enable-background:new 0 0 50 50;" xml:space="preserve">
<g id="tab-basic">
	<g>
		<g>
			<g>
				<path style="fill:#919090;" d="M24.39,28.744h-1.216c-0.631,0-1.143-0.51-1.143-1.141c0-0.233,0.094-0.459,0.261-0.621
					c0.708-0.687,1.302-1.612,1.733-2.61c0.088,0.064,0.182,0.111,0.288,0.111c0.683,0,1.487-1.509,1.487-2.538
					c0-1.029-0.095-1.863-0.78-1.863c-0.081,0-0.166,0.014-0.254,0.036c-0.049-2.79-0.753-6.27-5.013-6.27
					c-4.444,0-4.963,3.474-5.013,6.26c-0.063-0.013-0.125-0.027-0.183-0.027c-0.684,0-0.778,0.834-0.778,1.863
					c0,1.029,0.802,2.538,1.486,2.538c0.085,0,0.163-0.023,0.236-0.066c0.429,0.982,1.016,1.888,1.713,2.569
					c0.168,0.163,0.261,0.385,0.261,0.62c0,0.631-0.512,1.143-1.143,1.143h-1.218c-2.602,0-4.711,2.109-4.711,4.711v1.306
					c0,0.82,0.665,1.487,1.487,1.487h15.721c0.82,0,1.486-0.667,1.486-1.487V33.46C29.101,30.855,26.992,28.744,24.39,28.744z"/>
				<path style="fill:#919090;" d="M38.494,15.821H25.311c0.38,0.842,0.653,1.879,0.766,3.161c0.282,0.174,0.493,0.454,0.665,0.792
					h11.752c0.611,0,1.102-0.493,1.102-1.102v-1.749C39.596,16.316,39.104,15.821,38.494,15.821z"/>
				<path style="fill:#919090;" d="M38.494,23.024H27.011c-0.312,1.177-1.079,2.409-2.142,2.738c-0.031,0.058-0.067,0.108-0.1,0.166
					v1.049h13.723c0.609,0,1.102-0.493,1.102-1.104v-1.747C39.596,23.517,39.104,23.024,38.494,23.024z"/>
				<path style="fill:#919090;" d="M38.494,30.227H29.53c0.592,0.936,0.939,2.04,0.939,3.228v0.725h8.025
					c0.611,0,1.102-0.493,1.102-1.102v-1.749C39.596,30.72,39.104,30.227,38.494,30.227z"/>
				<path style="fill:#919090;" d="M43.231,4.832H6.771C3.031,4.832,0,7.862,0,11.602v26.889c0,3.742,3.031,6.771,6.771,6.771h36.46
					c3.74,0,6.769-3.031,6.769-6.771V11.602C50,7.862,46.971,4.832,43.231,4.832z M46.805,38.491c0,1.971-1.603,3.574-3.574,3.574
					H6.771c-1.971,0-3.574-1.603-3.574-3.574V11.602c0-1.971,1.603-3.574,3.574-3.574h36.46c1.971,0,3.574,1.603,3.574,3.574V38.491
					z"/>
			</g>
		</g>
	</g>
</g>
<g id="Layer_1">
</g>
</svg>
