<?xml version="1.0" encoding="iso-8859-1"?>
<!-- Generator: Adobe Illustrator 19.2.1, SVG Export Plug-In . SVG Version: 6.00 Build 0)  -->
<svg version="1.1" xmlns="http://www.w3.org/2000/svg" xmlns:xlink="http://www.w3.org/1999/xlink" x="0px" y="0px"
	 viewBox="0 0 50 50" style="enable-background:new 0 0 50 50;" xml:space="preserve">
<g id="tab-coach">
	<g>
		<path style="fill:#919090;" d="M43.564,32h-8.825h-8.825c0,0-0.046,0-0.071,0c-2.791,0-5.435-1.589-7.047-3.956
			c-1.27-1.862-1.772-4.293-1.399-6.54c0.136-0.822,0.106-1.753-0.122-2.614c-0.299-1.132-0.897-2.129-1.674-2.849l0.038-0.029
			l-1.747-6.612c-0.226-0.854-1.077-1.36-1.902-1.127l-1.077,0.305C10.517,8.69,10.18,8.962,9.977,9.331
			C9.773,9.7,9.719,10.137,9.828,10.549l1.101,4.166c-0.079,0.018-0.158,0.038-0.237,0.061c-2.831,0.805-4.474,3.921-3.669,6.962
			c0.289,1.096,0.859,2.032,1.598,2.744c1.017,4.361,3.576,9.752,8.751,13.539c1.788,1.309,3.331,2.983,4.5,4.902
			c0.003,0.007,0.008-0.009,0.011-0.002L22.176,50H49V38.72C49,34.981,46.829,32,43.564,32z"/>
		<ellipse style="fill:#919090;" cx="34.738" cy="22.844" rx="8.471" ry="8.601"/>
		<path style="fill:#919090;" d="M49.04,8H17.714c-0.522,0-0.943,0.188-0.943,0.727L16.77,9.221c0,0.541,0.422,0.779,0.943,0.779
			H49.04C49.562,10,50,9.708,50,9.169V8.477C50,7.936,49.559,8,49.04,8z"/>
		<path style="fill:#919090;" d="M49.054,0.047L1.038,0.048C0.464,0.048,0,0.531,0,1.124v0.594C0,2.258,0.422,3,0.943,3h48.111
			C49.576,3,50,2.258,50,1.718V1.026C50,0.486,49.576,0.047,49.054,0.047z"/>
	</g>
</g>
<g id="Layer_1">
</g>
</svg>
