<?xml version="1.0" encoding="iso-8859-1"?>
<!-- Generator: Adobe Illustrator 21.0.2, SVG Export Plug-In . SVG Version: 6.00 Build 0)  -->
<svg version="1.1" xmlns="http://www.w3.org/2000/svg" xmlns:xlink="http://www.w3.org/1999/xlink" x="0px" y="0px"
	 viewBox="0 0 60 60" style="enable-background:new 0 0 60 60;" xml:space="preserve">
<g id="Audio_x5F_videoready">
	<g>
		<g>
			<g>
				<path style="fill:#114E81;" d="M49.965,49.264H44.61c-2.781,0-5.035-2.254-5.035-5.035v-5.355c0-2.781,2.254-5.035,5.035-5.035
					h5.355c2.781,0,5.035,2.254,5.035,5.035v5.355C55,47.01,52.746,49.264,49.965,49.264z"/>
			</g>
			<g>
				<path style="fill:#114E81;" d="M15.39,49.264h-5.355C7.254,49.264,5,47.01,5,44.229v-5.355c0-2.781,2.254-5.035,5.035-5.035
					h5.355c2.781,0,5.035,2.254,5.035,5.035v5.355C20.425,47.01,18.171,49.264,15.39,49.264z"/>
			</g>
		</g>
		<g>
			<polygon style="fill:#FFFFFF;" points="50.495,41.259 45.117,38.154 45.117,44.365 			"/>
		</g>
		<g>
			<rect x="28.531" y="32.06" style="fill:#2D89B9;" width="2.937" height="10.599"/>
		</g>
		<g>
			<g>
				<rect x="30" y="40.083" style="fill:#2D89B9;" width="4.765" height="2.937"/>
			</g>
			<g>
				<g>
					<polygon style="fill:#2D89B9;" points="33.909,44.481 38.982,41.552 33.909,38.622 					"/>
				</g>
			</g>
		</g>
		<g>
			<g>
				<rect x="24.813" y="40.083" style="fill:#2D89B9;" width="5.187" height="2.937"/>
			</g>
			<g>
				<g>
					<polygon style="fill:#2D89B9;" points="25.584,38.915 21.018,41.552 25.584,44.188 					"/>
				</g>
			</g>
		</g>
		<g>
			<circle style="fill:#2D89B9;" cx="30" cy="21.848" r="11.113"/>
		</g>
		<g>
			<g>
				<path style="fill:#FFFFFF;" d="M14.72,38.518c-0.101,0.101-0.152,0.234-0.152,0.366c0,0.132,0.051,0.265,0.152,0.366
					c0.613,0.615,0.984,1.432,0.984,2.302c0,0.869-0.371,1.686-0.984,2.301c-0.202,0.203-0.202,0.53,0,0.733
					c0.202,0.202,0.529,0.202,0.73,0c0.809-0.81,1.254-1.888,1.254-3.033c0-1.146-0.446-2.224-1.254-3.034
					C15.25,38.316,14.922,38.316,14.72,38.518z"/>
			</g>
			<g>
				<path style="fill:#FFFFFF;" d="M11.755,39.006l-1.597,0.969h-0.91c-0.582,0-0.527,0.475-0.527,1.058v1.059
					c0,0.585-0.055,1.058,0.527,1.058h0.9l1.607,0.974c0.351,0.216,0.698,0.041,0.698-0.387v-4.345
					C12.452,38.964,12.106,38.79,11.755,39.006z"/>
			</g>
			<g>
				<path style="fill:#FFFFFF;" d="M14.366,39.783c-0.195-0.195-0.512-0.195-0.708,0c-0.098,0.098-0.146,0.262-0.146,0.4
					c0,0.137,0.049,0.209,0.146,0.306c0.283,0.283,0.455,0.658,0.455,1.057s-0.172,0.775-0.455,1.057
					c-0.195,0.195-0.195,0.511,0,0.707c0.195,0.195,0.512,0.195,0.709,0c0.472-0.471,0.732-1.097,0.732-1.764
					C15.099,40.881,14.839,40.254,14.366,39.783z"/>
			</g>
		</g>
		<path style="fill:#FFFFFF;" d="M36.001,27.493c1.257-1.417,2.023-3.28,2.023-5.319c0-2.121-0.829-4.052-2.178-5.488v0
			c-0.001-0.002-0.003-0.002-0.004-0.004c-1.405-1.494-3.374-2.45-5.564-2.525l0,0l-0.156-0.004
			c-0.04-0.001-0.081-0.003-0.121-0.003c-0.041,0-0.081,0.001-0.121,0.003l-0.156,0.004l0,0c-2.19,0.075-4.159,1.031-5.564,2.525
			c-0.001,0.001-0.003,0.002-0.004,0.004c0,0,0,0,0,0.001c-1.349,1.436-2.178,3.366-2.178,5.488c0,2.039,0.766,3.902,2.023,5.319
			c0.002,0.002,0.002,0.005,0.004,0.008c0.005,0.007,0.012,0.01,0.017,0.017c1.413,1.579,3.44,2.597,5.702,2.674l0,0l0.156,0.004
			c0.041,0.001,0.081,0.002,0.122,0.002c0.041,0,0.081-0.001,0.121-0.003l0.156-0.004l0,0c2.265-0.078,4.294-1.097,5.707-2.68
			c0.004-0.005,0.009-0.006,0.013-0.011C35.999,27.498,35.999,27.495,36.001,27.493z M22.536,22.451h3.321
			c0.031,1.173,0.26,2.313,0.668,3.38c-0.787,0.285-1.539,0.667-2.244,1.143C23.245,25.741,22.599,24.169,22.536,22.451z
			 M24.433,17.2c0.688,0.448,1.421,0.806,2.186,1.074c-0.468,1.136-0.727,2.362-0.761,3.623h-3.321
			C22.603,20.097,23.308,18.458,24.433,17.2z M37.464,21.897h-3.321c-0.034-1.262-0.293-2.487-0.761-3.623
			c0.764-0.268,1.497-0.626,2.186-1.074C36.693,18.458,37.398,20.097,37.464,21.897z M29.723,18.29
			c-0.8-0.023-1.585-0.142-2.344-0.355c0.561-1.15,1.353-2.189,2.344-3.054V18.29z M29.723,18.844v3.054h-3.313
			c0.034-1.203,0.286-2.37,0.738-3.452C27.98,18.687,28.844,18.82,29.723,18.844z M30.277,18.844
			c0.88-0.024,1.743-0.157,2.575-0.398c0.451,1.082,0.704,2.249,0.738,3.452h-3.313V18.844z M30.277,18.29v-3.409
			c0.991,0.865,1.783,1.903,2.344,3.054C31.862,18.148,31.077,18.267,30.277,18.29z M33.157,17.767
			c-0.532-1.114-1.269-2.128-2.183-2.998c1.62,0.212,3.078,0.945,4.201,2.025C34.538,17.198,33.862,17.524,33.157,17.767z
			 M26.843,17.767c-0.705-0.243-1.381-0.569-2.018-0.973c1.123-1.08,2.581-1.813,4.201-2.025
			C28.113,15.639,27.375,16.653,26.843,17.767z M26.411,22.451h3.313v2.777c-0.915,0.024-1.811,0.167-2.673,0.426
			C26.661,24.643,26.442,23.563,26.411,22.451z M29.723,25.782v3.685c-1.061-0.926-1.893-2.05-2.458-3.297
			C28.059,25.935,28.883,25.805,29.723,25.782z M30.277,29.467v-3.685c0.841,0.024,1.665,0.154,2.458,0.387
			C32.169,27.417,31.338,28.541,30.277,29.467z M30.277,25.228v-2.777h3.313c-0.031,1.112-0.25,2.192-0.64,3.204
			C32.088,25.395,31.192,25.253,30.277,25.228z M34.143,22.451h3.321c-0.063,1.718-0.708,3.29-1.745,4.523
			c-0.705-0.476-1.457-0.858-2.244-1.143C33.883,24.763,34.111,23.624,34.143,22.451z M24.658,27.389
			c0.655-0.435,1.352-0.785,2.08-1.046c0.538,1.206,1.311,2.306,2.289,3.237C27.324,29.356,25.801,28.56,24.658,27.389z
			 M30.974,29.579c0.978-0.931,1.75-2.03,2.289-3.237c0.728,0.261,1.425,0.611,2.08,1.046C34.199,28.56,32.676,29.356,30.974,29.579
			z"/>
	</g>
</g>
<g id="Layer_1">
</g>
</svg>
