<?xml version="1.0" encoding="iso-8859-1"?>
<!-- Generator: Adobe Illustrator 21.0.2, SVG Export Plug-In . SVG Version: 6.00 Build 0)  -->
<svg version="1.1" xmlns="http://www.w3.org/2000/svg" xmlns:xlink="http://www.w3.org/1999/xlink" x="0px" y="0px"
	 viewBox="0 0 60 60" style="enable-background:new 0 0 60 60;" xml:space="preserve">
<g id="camera">
	<path style="fill:#114E81;" d="M8.543,6.127h42.913C53.414,6.127,55,7.642,55,9.511v40.978c0,1.869-1.586,3.384-3.543,3.384H8.543
		C6.586,53.873,5,52.358,5,50.489V9.511C5,7.642,6.586,6.127,8.543,6.127z"/>
	<path style="fill:#3FA8DF;" d="M11.284,9.177h37.432c1.707,0,3.091,1.321,3.091,2.951v35.744c0,1.63-1.384,2.951-3.091,2.951
		H11.284c-1.707,0-3.091-1.321-3.091-2.951V12.128C8.193,10.498,9.577,9.177,11.284,9.177z"/>
	<g>
		<path style="fill:#114E81;" d="M28.427,18.112c7.501,0,13.582,6.082,13.582,13.582c0,7.501-6.081,13.582-13.582,13.582
			s-13.582-6.081-13.582-13.582C14.845,24.195,20.926,18.112,28.427,18.112z"/>
		<path style="fill:#114E81;" d="M41.767,14.724c1.871,0,3.388,1.517,3.388,3.388c0,1.871-1.517,3.388-3.388,3.388
			c-1.871,0-3.388-1.517-3.388-3.388C38.379,16.242,39.896,14.724,41.767,14.724z"/>
		<path style="fill:#D1CDCC;" d="M32.131,25.521c1.363,0,2.469,1.106,2.469,2.469c0,1.364-1.106,2.469-2.469,2.469
			s-2.469-1.105-2.469-2.469C29.661,26.626,30.767,25.521,32.131,25.521z"/>
		<path style="fill:#EBEBEB;" d="M28.427,18.112c-7.501,0-13.582,6.082-13.582,13.582c0,7.501,6.081,13.582,13.582,13.582
			s13.582-6.081,13.582-13.582C42.008,24.195,35.929,18.112,28.427,18.112z M28.427,43.424c-6.467,0-11.73-5.262-11.73-11.73
			s5.262-11.73,11.73-11.73s11.73,5.262,11.73,11.73S34.895,43.424,28.427,43.424z"/>
	</g>
</g>
<g id="Layer_1">
</g>
</svg>
