<?xml version="1.0" encoding="iso-8859-1"?>
<!-- Generator: Adobe Illustrator 21.0.2, SVG Export Plug-In . SVG Version: 6.00 Build 0)  -->
<svg version="1.1" xmlns="http://www.w3.org/2000/svg" xmlns:xlink="http://www.w3.org/1999/xlink" x="0px" y="0px"
	 viewBox="0 0 60 60" style="enable-background:new 0 0 60 60;" xml:space="preserve">
<g id="Publish_x5F_Video">
	<g>
		<path style="fill:#114E81;" d="M47.511,45.631H12.489C8.353,45.631,5,42.278,5,38.142V18.095c0-4.136,3.353-7.489,7.489-7.489
			h35.021c4.136,0,7.489,3.353,7.489,7.489v20.047C55,42.278,51.647,45.631,47.511,45.631z"/>
		<path style="fill:#2D89B9;" d="M45.894,49.394H14.106c-1.933,0-3.5-1.567-3.5-3.5V17.869c0-1.933,1.567-3.5,3.5-3.5h31.789
			c1.933,0,3.5,1.567,3.5,3.5v28.026C49.394,47.827,47.827,49.394,45.894,49.394z"/>
		<polygon style="fill:#FFFFFF;" points="30,22.175 17.965,38.433 42.035,38.433 		"/>
		<rect x="26.413" y="36.715" style="fill:#FFFFFF;" width="7.174" height="7.429"/>
	</g>
</g>
<g id="Layer_1">
</g>
</svg>
