<?xml version="1.0" encoding="iso-8859-1"?>
<!-- Generator: Adobe Illustrator 21.0.2, SVG Export Plug-In . SVG Version: 6.00 Build 0)  -->
<svg version="1.1" xmlns="http://www.w3.org/2000/svg" xmlns:xlink="http://www.w3.org/1999/xlink" x="0px" y="0px"
	 viewBox="0 0 60 60" style="enable-background:new 0 0 60 60;" xml:space="preserve">
<g id="Video_x5F_Subscribe">
	<g>
		<path style="fill:#114E81;" d="M52.479,44.187H7.521C6.129,44.187,5,43.058,5,41.666V9.949c0-1.392,1.129-2.521,2.521-2.521
			h44.959C53.871,7.428,55,8.557,55,9.949v31.717C55,43.058,53.871,44.187,52.479,44.187z"/>
		<path style="fill:#2C89B9;" d="M49.854,48.378H10.146c-1.392,0-2.521-1.129-2.521-2.521V14.14c0-1.392,1.129-2.521,2.521-2.521
			h39.708c1.392,0,2.521,1.129,2.521,2.521v31.717C52.375,47.249,51.246,48.378,49.854,48.378z"/>
		<path style="fill:#3FA8DF;" d="M46.059,52.572H13.941c-1.392,0-2.521-1.129-2.521-2.521V17.933c0-1.392,1.129-2.521,2.521-2.521
			h32.118c1.392,0,2.521,1.129,2.521,2.521v32.118C48.58,51.443,47.451,52.572,46.059,52.572z"/>
		<polygon style="fill:#FFFFFF;" points="37.728,33.288 24.771,25.807 24.771,40.769 		"/>
	</g>
</g>
<g id="Layer_1">
</g>
</svg>
