<?xml version="1.0" encoding="iso-8859-1"?>
<!-- Generator: Adobe Illustrator 19.2.1, SVG Export Plug-In . SVG Version: 6.00 Build 0)  -->
<svg version="1.1" xmlns="http://www.w3.org/2000/svg" xmlns:xlink="http://www.w3.org/1999/xlink" x="0px" y="0px"
	 viewBox="0 0 40 40" style="enable-background:new 0 0 40 40;" xml:space="preserve">
<g id="back-one-page">
	<g>
		<g id="XMLID_13_">
			<path style="fill-rule:evenodd;clip-rule:evenodd;" d="M20,0c11.046,0,20,8.954,20,20s-8.954,20-20,20S0,31.046,0,20
				S8.954,0,20,0z M37.002,20c0-9.39-7.612-17.002-17.002-17.002C10.611,2.998,2.998,10.61,2.998,20
				c0,9.389,7.613,17.002,17.002,17.002C29.39,37.002,37.002,29.389,37.002,20z"/>
		</g>
		<g>
			<g>
				<path style="fill:#231F20;" d="M27.734,22.141H13.636c-1.182,0-2.141-0.958-2.141-2.141s0.959-2.141,2.141-2.141h14.098
					c1.182,0,2.141,0.958,2.141,2.141S28.916,22.141,27.734,22.141z"/>
			</g>
			<g>
				<g>
					<path style="fill:#231F20;" d="M19.465,24.27l-2.611-2.822c-0.756-0.818-0.756-2.08,0-2.897l2.611-2.822
						c1.264-1.366,0.295-3.582-1.566-3.582h-0.353c-0.595,0-1.162,0.248-1.566,0.685l-5.288,5.719c-0.756,0.817-0.756,2.079,0,2.896
						l5.288,5.719c0.404,0.437,0.971,0.685,1.566,0.685h0.353C19.76,27.852,20.729,25.636,19.465,24.27z"/>
				</g>
			</g>
		</g>
	</g>
</g>
<g id="Layer_1">
</g>
</svg>
