<?xml version="1.0" encoding="utf-8"?>
<!-- Generator: Adobe Illustrator 19.2.1, SVG Export Plug-In . SVG Version: 6.00 Build 0)  -->
<svg version="1.1" id="Layer_1" xmlns="http://www.w3.org/2000/svg" xmlns:xlink="http://www.w3.org/1999/xlink" x="0px" y="0px"
	 viewBox="0 0 14.9 14.9" style="enable-background:new 0 0 14.9 14.9;" xml:space="preserve">
<style type="text/css">
	.st0{fill:#E95756;}
	.st1{fill:#F6F7F7;}
</style>
<g>
	<path class="st0" d="M14.4,14.9H0.5c-0.3,0-0.5-0.2-0.5-0.5V0.5C0,0.2,0.2,0,0.5,0h13.8c0.3,0,0.5,0.2,0.5,0.5v13.8
		C14.9,14.7,14.7,14.9,14.4,14.9z"/>
	<path class="st1" d="M9.7,10.4L4.5,5.2C4.3,5,4.3,4.7,4.5,4.5l0,0c0.2-0.2,0.6-0.2,0.8,0l5.2,5.2c0.2,0.2,0.2,0.6,0,0.8l0,0
		C10.2,10.7,9.9,10.7,9.7,10.4z"/>
	<path class="st1" d="M4.5,9.7l5.2-5.2c0.2-0.2,0.6-0.2,0.8,0l0,0c0.2,0.2,0.2,0.6,0,0.8l-5.2,5.2c-0.2,0.2-0.6,0.2-0.8,0l0,0
		C4.3,10.2,4.3,9.9,4.5,9.7z"/>
</g>
</svg>
