<?xml version="1.0" encoding="iso-8859-1"?>
<!-- Generator: Adobe Illustrator 19.2.1, SVG Export Plug-In . SVG Version: 6.00 Build 0)  -->
<svg version="1.1" xmlns="http://www.w3.org/2000/svg" xmlns:xlink="http://www.w3.org/1999/xlink" x="0px" y="0px"
	 viewBox="0 0 40 40" style="enable-background:new 0 0 40 40;" xml:space="preserve">
<g id="Coach-Supplier">
	<g>
		<g id="XMLID_41_">
			<path style="fill-rule:evenodd;clip-rule:evenodd;" d="M25.975,35.921c-1.858,0.699-3.872,1.081-5.975,1.081
				c-2.072,0-4.057-0.371-5.892-1.05C7.623,33.556,2.998,27.317,2.998,20c0-9.39,7.613-17.002,17.002-17.002
				c9.39,0,17.002,7.612,17.002,17.002C37.002,27.286,32.417,33.504,25.975,35.921z M23.395,39.712C22.292,39.902,21.158,40,20,40
				c-1.124,0-2.226-0.093-3.299-0.272C7.226,38.157,0,29.922,0,20C0,8.954,8.954,0,20,0s20,8.954,20,20
				C40,29.888,32.823,38.101,23.395,39.712z"/>
			<path d="M20.036,26.66c2.351,0,4.399,1.476,5.462,3.657c-1.485,1.248-3.482,2.013-5.678,2.013c-2.043,0-3.916-0.662-5.363-1.76
				C15.482,28.251,17.595,26.66,20.036,26.66z"/>
			<circle cx="20" cy="21.867" r="3.487"/>
		</g>
		<g>
			<g>
				<g>
					<path d="M24.687,16.469h-9.3c-0.426,0-0.774-0.38-0.774-0.846v-4.475c0-0.467,0.347-0.846,0.774-0.846h9.3
						c0.426,0,0.774,0.38,0.774,0.846v4.475C25.46,16.09,25.113,16.469,24.687,16.469z M15.387,11.028c-0.06,0-0.11,0.054-0.11,0.12
						v4.475c0,0.066,0.049,0.12,0.11,0.12h9.3c0.06,0,0.11-0.054,0.11-0.12v-4.475c0-0.066-0.049-0.12-0.11-0.12H15.387z"/>
				</g>
			</g>
			<g>
				<rect x="15.87" y="12.002" width="8.272" height="0.454"/>
			</g>
			<g>
				<rect x="15.87" y="13.222" width="7.406" height="0.454"/>
			</g>
			<g>
				<rect x="15.87" y="14.369" width="6.424" height="0.454"/>
			</g>
		</g>
	</g>
</g>
<g id="Layer_1">
</g>
</svg>
