<?xml version="1.0" encoding="iso-8859-1"?>
<!-- Generator: Adobe Illustrator 19.2.1, SVG Export Plug-In . SVG Version: 6.00 Build 0)  -->
<svg version="1.1" xmlns="http://www.w3.org/2000/svg" xmlns:xlink="http://www.w3.org/1999/xlink" x="0px" y="0px"
	 viewBox="0 0 40 40" style="enable-background:new 0 0 40 40;" xml:space="preserve">
<g id="date">
	<g>
		<path style="fill-rule:evenodd;clip-rule:evenodd;fill:#51B3E8;" d="M20,0c11.046,0,20,8.954,20,20s-8.954,20-20,20S0,31.046,0,20
			S8.954,0,20,0z M37.002,20c0-9.39-7.612-17.002-17.002-17.002C10.611,2.998,2.998,10.61,2.998,20
			c0,9.389,7.613,17.002,17.002,17.002C29.39,37.002,37.002,29.389,37.002,20z"/>
	</g>
	<g>
		<path style="fill:#51B3E8;" d="M27.25,13.122v14.5h-14.5v-14.5H27.25 M27.408,11.622H12.592c-0.741,0-1.342,0.601-1.342,1.342
			V27.78c0,0.741,0.601,1.342,1.342,1.342h14.816c0.741,0,1.342-0.601,1.342-1.342V12.964C28.75,12.223,28.149,11.622,27.408,11.622
			L27.408,11.622z"/>
	</g>
	<g>
		<line style="fill-rule:evenodd;clip-rule:evenodd;fill:#51B3E8;" x1="17.148" y1="10.878" x2="17.148" y2="13.683"/>
	</g>
	<g>
		<path style="fill:#51B3E8;" d="M17.148,14.433c-0.414,0-0.75-0.336-0.75-0.75v-2.806c0-0.414,0.336-0.75,0.75-0.75
			s0.75,0.336,0.75,0.75v2.806C17.898,14.097,17.562,14.433,17.148,14.433z"/>
	</g>
	<g>
		<line style="fill-rule:evenodd;clip-rule:evenodd;fill:#51B3E8;" x1="20" y1="10.878" x2="20" y2="13.683"/>
	</g>
	<g>
		<path style="fill:#51B3E8;" d="M20,14.433c-0.414,0-0.75-0.336-0.75-0.75v-2.806c0-0.414,0.336-0.75,0.75-0.75
			s0.75,0.336,0.75,0.75v2.806C20.75,14.097,20.414,14.433,20,14.433z"/>
	</g>
	<g>
		<line style="fill-rule:evenodd;clip-rule:evenodd;fill:#51B3E8;" x1="22.852" y1="10.878" x2="22.852" y2="13.683"/>
	</g>
	<g>
		<path style="fill:#51B3E8;" d="M22.852,14.433c-0.414,0-0.75-0.336-0.75-0.75v-2.806c0-0.414,0.336-0.75,0.75-0.75
			s0.75,0.336,0.75,0.75v2.806C23.602,14.097,23.266,14.433,22.852,14.433z"/>
	</g>
	<g>
		<rect x="15.613" y="16.497" style="fill-rule:evenodd;clip-rule:evenodd;fill:#51B3E8;" width="3.875" height="3.875"/>
	</g>
	<g>
		<rect x="20.512" y="16.497" style="fill-rule:evenodd;clip-rule:evenodd;fill:#51B3E8;" width="3.875" height="3.875"/>
	</g>
	<g>
		<rect x="15.613" y="21.372" style="fill-rule:evenodd;clip-rule:evenodd;fill:#51B3E8;" width="3.875" height="3.875"/>
	</g>
	<g>
		<rect x="20.512" y="21.372" style="fill-rule:evenodd;clip-rule:evenodd;fill:#51B3E8;" width="3.875" height="3.875"/>
	</g>
</g>
<g id="Layer_1">
</g>
</svg>
