<?xml version="1.0" encoding="iso-8859-1"?>
<!-- Generator: Adobe Illustrator 19.2.1, SVG Export Plug-In . SVG Version: 6.00 Build 0)  -->
<svg version="1.1" xmlns="http://www.w3.org/2000/svg" xmlns:xlink="http://www.w3.org/1999/xlink" x="0px" y="0px"
	 viewBox="0 0 40 40" style="enable-background:new 0 0 40 40;" xml:space="preserve">
<g id="edit-profile">
	<g>
		<g>
			<path style="fill:#010101;" d="M11.836,28.97h15.808c0.438,0,0.794-0.355,0.794-0.794v-9.2c0-0.707-0.855-1.061-1.355-0.561
				l-6.399,6.399c-0.238,0.238-0.546,0.363-0.858,0.366c-0.022,0-0.044,0.004-0.07,0.004c-0.004,0-3.217-0.018-3.217-0.018
				c-0.429-0.004-0.858-0.187-1.18-0.509s-0.506-0.751-0.509-1.18c0,0-0.015-3.261-0.015-3.287c0.007-0.322,0.139-0.627,0.366-0.858
				l6.41-6.403c0.5-0.5,0.146-1.355-0.561-1.355h-9.214c-0.438,0-0.794,0.355-0.794,0.794v15.808
				C11.042,28.613,11.399,28.97,11.836,28.97z"/>
			<g>
				<path style="fill:#010101;" d="M27.434,16.287l1.396-1.396c0.183-0.183,0.161-0.531-0.015-0.711l-2.844-2.837
					c-0.273-0.273-0.72-0.272-0.993,0.001l-1.055,1.055c-0.105,0.105-0.105,0.276,0,0.382L27.434,16.287L27.434,16.287z"/>
				<path style="fill:#010101;" d="M20.625,23.059c0.004,0.004,0.011,0.011,0.015,0.018l5.826-5.826
					c0.105-0.105,0.105-0.276,0-0.382l-3.32-3.32c-0.105-0.105-0.276-0.105-0.382,0l-5.826,5.826
					c0.004,0.004,0.015,0.011,0.018,0.015L20.625,23.059z"/>
				<path style="fill:#010101;" d="M16.224,23.792c0.084,0.084,0.194,0.136,0.3,0.136h2.566c0.24,0,0.361-0.291,0.191-0.461
					l-2.737-2.734c-0.17-0.17-0.46-0.05-0.46,0.19l-0.006,2.565C16.081,23.598,16.14,23.708,16.224,23.792z"/>
			</g>
		</g>
		<g id="XMLID_14_">
			<path style="fill-rule:evenodd;clip-rule:evenodd;" d="M20,0c11.046,0,20,8.954,20,20s-8.954,20-20,20S0,31.046,0,20
				S8.954,0,20,0z M37.002,20c0-9.39-7.612-17.002-17.002-17.002C10.611,2.998,2.998,10.61,2.998,20
				c0,9.389,7.613,17.002,17.002,17.002C29.39,37.002,37.002,29.389,37.002,20z"/>
		</g>
	</g>
</g>
<g id="Layer_1">
</g>
</svg>
