<?xml version="1.0" encoding="iso-8859-1"?>
<!-- Generator: Adobe Illustrator 19.2.1, SVG Export Plug-In . SVG Version: 6.00 Build 0)  -->
<svg version="1.1" xmlns="http://www.w3.org/2000/svg" xmlns:xlink="http://www.w3.org/1999/xlink" x="0px" y="0px"
	 viewBox="0 0 40 40" style="enable-background:new 0 0 40 40;" xml:space="preserve">
<g id="Logout">
	<g>
		<g>
			<g>
				<g>
					<g>
						<g>
							<path style="fill:#231F20;" d="M15.232,20.803H9.943c-0.444,0-0.803-0.36-0.803-0.803s0.36-0.803,0.803-0.803h5.289
								c0.444,0,0.803,0.36,0.803,0.803S15.675,20.803,15.232,20.803z"/>
						</g>
					</g>
				</g>
				<g>
					<g>
						<g>
							<g>
								<path style="fill:#231F20;" d="M12.13,21.602l-0.979-1.059c-0.284-0.307-0.284-0.78,0-1.087l0.979-1.059
									c0.474-0.512,0.111-1.344-0.587-1.344H11.41c-0.223,0-0.436,0.093-0.587,0.257l-1.984,2.145
									c-0.284,0.307-0.284,0.78,0,1.087l1.984,2.145c0.151,0.164,0.364,0.257,0.587,0.257h0.132
									C12.24,22.945,12.604,22.114,12.13,21.602z"/>
							</g>
						</g>
					</g>
				</g>
			</g>
			<g id="XMLID_15_">
				<g>
					<g>
						<path style="fill:#231F20;" d="M23.267,28.212H16.25c-1.918,0-3.478-1.561-3.478-3.479v-2.371
							c0-0.328,0.265-0.593,0.593-0.593c0.327,0,0.593,0.265,0.593,0.593v2.371c0,1.265,1.028,2.294,2.292,2.294h7.018
							c1.264,0,2.292-1.029,2.292-2.294v-9.466c0-1.265-1.028-2.294-2.292-2.294H16.25c-1.264,0-2.292,1.029-2.292,2.294v2.371
							c0,0.327-0.265,0.593-0.593,0.593c-0.327,0-0.593-0.265-0.593-0.593v-2.371c0-1.919,1.56-3.479,3.478-3.479h7.018
							c1.918,0,3.478,1.561,3.478,3.479v9.466C26.745,26.651,25.185,28.212,23.267,28.212z"/>
					</g>
					<g>
						<path style="fill:#231F20;" d="M15.986,22.955h-2.621c-0.327,0-0.593-0.265-0.593-0.593c0-0.328,0.265-0.593,0.593-0.593
							h2.621c0.548,0,0.994-0.447,0.994-0.996v-1.547c0-0.549-0.446-0.996-0.994-0.996h-2.621c-0.327,0-0.593-0.265-0.593-0.593
							s0.265-0.593,0.593-0.593h2.621c1.202,0,2.179,0.979,2.179,2.181v1.547C18.165,21.976,17.188,22.955,15.986,22.955z"/>
					</g>
				</g>
			</g>
		</g>
		<g id="XMLID_16_">
			<path style="fill-rule:evenodd;clip-rule:evenodd;" d="M20,0c11.046,0,20,8.954,20,20s-8.954,20-20,20S0,31.046,0,20
				S8.954,0,20,0z M37.002,20c0-9.39-7.612-17.002-17.002-17.002C10.611,2.998,2.998,10.61,2.998,20
				c0,9.389,7.613,17.002,17.002,17.002C29.39,37.002,37.002,29.389,37.002,20z"/>
		</g>
	</g>
</g>
<g id="Layer_1">
</g>
</svg>
