<?xml version="1.0" encoding="utf-8"?>
<!-- Generator: Adobe Illustrator 20.1.0, SVG Export Plug-In . SVG Version: 6.00 Build 0)  -->
<svg version="1.1" id="Layer_1" xmlns="http://www.w3.org/2000/svg" xmlns:xlink="http://www.w3.org/1999/xlink" x="0px" y="0px"
	 viewBox="0 0 508 508" style="enable-background:new 0 0 508 508;" xml:space="preserve">
<style type="text/css">
	.st0{fill:#3BAAE4;}
	.st1{fill:#2A89B9;}
	.st2{fill:#E0E0E0;}
	.st3{fill:#FFFFFF;}
	.st4{fill:#F57C00;}
	.st5{fill:#FF9800;}
</style>
<g>
	<path class="st0" d="M254,0c140.3,0,254,113.7,254,254S394.3,508,254,508"/>
	<path class="st1" d="M254,508C113.7,508,0,394.3,0,254C0,113.7,113.7,0,254,0"/>
	<circle class="st2" cx="254" cy="247" r="206.9"/>
	<path class="st3" d="M254.7,417.9c95.6,0,173.2-77.6,173.2-173.2S350.3,71.5,254.7,71.5"/>
	<path class="st3" d="M254.7,71.5c-94,1.9-173.2,78.7-173.2,173.2c0,30,7.6,58.2,21,82.7l-21,90.5l90.5-21
		c24.6,13.4,52.8,21,82.7,21"/>
	<path class="st4" d="M242.3,264.5v15.8h9.7v-40.8c-3.6,3.8-6,7-7.2,9.6C243.1,252.4,242.3,257.6,242.3,264.5z M220.6,164.7
		c-10.3,8.7-16.3,20.7-18,36.1H234c0.7-6.7,3.3-12.1,7.7-16.2c3-2.7,6.4-4.5,10.3-5.4v-27.2C239.7,153.1,229.3,157.4,220.6,164.7z
		 M243.2,305.2c-3.9,3.8-5.8,8.3-5.8,13.6s2,9.8,6,13.5c2.6,2.4,5.4,4,8.6,4.9v-37C248.7,301,245.8,302.7,243.2,305.2z"/>
	<path class="st5" d="M277.2,318.6c0,5.3-1.9,9.8-5.8,13.6c-3.8,3.8-8.5,5.7-13.9,5.7c-1.9,0-3.8-0.2-5.5-0.7v-37
		c1.7-0.4,3.4-0.7,5.2-0.7c5.4,0,10.1,1.9,14.1,5.6C275.3,308.8,277.2,313.3,277.2,318.6z"/>
	<path class="st5" d="M311.2,199.3c0,10.4-2.8,19-8.5,25.9c-3.3,4.1-5.8,7.1-7.5,8.8s-4,3.9-6.9,6.6c-2.9,2.7-5.3,5-7.3,7
		s-3.6,3.7-4.8,5.1c-3.1,3.8-4.7,9.2-4.7,16.1v11.5H252v-40.8c1.1-1.2,2.3-2.4,3.6-3.7l18.9-18.9c4-4.3,6-9.7,6-16.1
		c0-6.4-2.1-11.7-6.2-15.9c-4.2-4.2-9.5-6.4-16.1-6.4c-2.2,0-4.3,0.2-6.2,0.7v-27.2c2.3-0.2,4.7-0.3,7.1-0.3
		c15.4,0,27.9,4.2,37.6,12.6C306.4,172.6,311.2,184.3,311.2,199.3z"/>
</g>
</svg>
