<svg xmlns="http://www.w3.org/2000/svg" viewBox="442 364.918 103.613 118.414"><defs><style>.a{fill:#ffd200;}.b{fill:#ff9600;}.c{fill:#df8328;}.d{fill:#ffef43;}</style></defs><g transform="translate(434.599 364.918)"><path class="a" d="M59.207,96.212c-10.375,0-18.5,4.877-18.5,11.1s8.127,11.1,18.5,11.1,18.5-4.877,18.5-11.1S69.582,96.212,59.207,96.212Z"/><path class="b" d="M59.207,92.511c-10.375,0-18.5,4.877-18.5,11.1s8.127,11.1,18.5,11.1,18.5-4.877,18.5-11.1S69.582,92.511,59.207,92.511Z"/><path class="a" d="M59.207,88.811c-10.375,0-18.5,4.877-18.5,11.1s8.127,11.1,18.5,11.1,18.5-4.877,18.5-11.1S69.582,88.811,59.207,88.811Z"/><path class="b" d="M59.207,85.11c-10.375,0-18.5,4.877-18.5,11.1s8.127,11.1,18.5,11.1,18.5-4.877,18.5-11.1S69.582,85.11,59.207,85.11Z"/><path class="a" d="M59.207,81.41c-10.375,0-18.5,4.877-18.5,11.1s8.127,11.1,18.5,11.1,18.5-4.877,18.5-11.1S69.582,81.41,59.207,81.41Z"/><path class="b" d="M59.207,77.709c-10.375,0-18.5,4.877-18.5,11.1s8.127,11.1,18.5,11.1,18.5-4.877,18.5-11.1S69.582,77.709,59.207,77.709Z"/><path class="a" d="M59.207,74.009c-10.375,0-18.5,4.877-18.5,11.1s8.127,11.1,18.5,11.1,18.5-4.877,18.5-11.1S69.582,74.009,59.207,74.009Z"/><path class="b" d="M59.207,70.309c-10.375,0-18.5,4.877-18.5,11.1s8.127,11.1,18.5,11.1,18.5-4.877,18.5-11.1S69.582,70.309,59.207,70.309Z"/><path class="a" d="M59.207,66.608c-10.375,0-18.5,4.877-18.5,11.1s8.127,11.1,18.5,11.1,18.5-4.877,18.5-11.1S69.582,66.608,59.207,66.608Z"/><path class="b" d="M59.207,62.908c-10.375,0-18.5,4.877-18.5,11.1s8.127,11.1,18.5,11.1,18.5-4.877,18.5-11.1S69.582,62.908,59.207,62.908Z"/><path class="a" d="M59.207,59.207c-10.375,0-18.5,4.877-18.5,11.1s8.127,11.1,18.5,11.1,18.5-4.877,18.5-11.1S69.582,59.207,59.207,59.207Z"/><path class="b" d="M59.207,55.507c-10.375,0-18.5,4.877-18.5,11.1s8.127,11.1,18.5,11.1,18.5-4.877,18.5-11.1S69.582,55.507,59.207,55.507Z"/><path class="a" d="M59.207,51.806c-10.375,0-18.5,4.877-18.5,11.1s8.127,11.1,18.5,11.1,18.5-4.877,18.5-11.1S69.582,51.806,59.207,51.806Z"/><path class="b" d="M59.207,48.106c-10.375,0-18.5,4.877-18.5,11.1s8.127,11.1,18.5,11.1,18.5-4.877,18.5-11.1S69.582,48.106,59.207,48.106Z"/><path class="b" d="M40.7,107.313c0,6.225,8.127,11.1,18.5,11.1v-22.2C48.832,96.212,40.7,101.088,40.7,107.313Z"/><path class="c" d="M40.7,103.613c0,6.225,8.127,11.1,18.5,11.1v-22.2C48.832,92.511,40.7,97.388,40.7,103.613Z"/><path class="b" d="M40.7,99.912c0,6.225,8.127,11.1,18.5,11.1v-22.2C48.832,88.811,40.7,93.688,40.7,99.912Z"/><path class="c" d="M40.7,96.212c0,6.225,8.127,11.1,18.5,11.1V85.11C48.832,85.11,40.7,89.987,40.7,96.212Z"/><path class="b" d="M40.7,92.511c0,6.225,8.127,11.1,18.5,11.1V81.41C48.832,81.41,40.7,86.287,40.7,92.511Z"/><path class="c" d="M40.7,88.811c0,6.225,8.127,11.1,18.5,11.1v-22.2C48.832,77.709,40.7,82.586,40.7,88.811Z"/><path class="b" d="M40.7,85.11c0,6.225,8.127,11.1,18.5,11.1v-22.2C48.832,74.009,40.7,78.886,40.7,85.11Z"/><path class="b" d="M40.7,85.11c0,6.225,8.127,11.1,18.5,11.1v-22.2C48.832,74.009,40.7,78.886,40.7,85.11Z"/><path class="c" d="M40.7,81.41c0,6.225,8.127,11.1,18.5,11.1v-22.2C48.832,70.309,40.7,75.185,40.7,81.41Z"/><path class="b" d="M40.7,77.709c0,6.225,8.127,11.1,18.5,11.1v-22.2C48.832,66.608,40.7,71.485,40.7,77.709Z"/><path class="c" d="M40.7,74.009c0,6.225,8.127,11.1,18.5,11.1v-22.2C48.832,62.908,40.7,67.784,40.7,74.009Z"/><path class="b" d="M40.7,70.309c0,6.225,8.127,11.1,18.5,11.1v-22.2C48.832,59.207,40.7,64.084,40.7,70.309Z"/><path class="b" d="M40.7,70.309c0,6.225,8.127,11.1,18.5,11.1v-22.2C48.832,59.207,40.7,64.084,40.7,70.309Z"/><path class="c" d="M40.7,66.608c0,6.225,8.127,11.1,18.5,11.1v-22.2C48.832,55.507,40.7,60.384,40.7,66.608Z"/><path class="b" d="M40.7,62.908c0,6.225,8.127,11.1,18.5,11.1v-22.2C48.832,51.806,40.7,56.683,40.7,62.908Z"/><path class="c" d="M40.7,59.207c0,6.225,8.127,11.1,18.5,11.1v-22.2C48.832,48.106,40.7,52.983,40.7,59.207Z"/><path class="b" d="M40.7,55.507c0,6.225,8.127,11.1,18.5,11.1v-22.2C48.832,44.405,40.7,49.282,40.7,55.507Z"/><path class="a" d="M59.207,44.405c-10.375,0-18.5,4.877-18.5,11.1s8.127,11.1,18.5,11.1,18.5-4.877,18.5-11.1S69.582,44.405,59.207,44.405Z"/><path class="b" d="M59.207,40.7c-10.375,0-18.5,4.877-18.5,11.1s8.127,11.1,18.5,11.1,18.5-4.877,18.5-11.1S69.582,40.7,59.207,40.7Z"/><path class="a" d="M59.207,37c-10.375,0-18.5,4.877-18.5,11.1s8.127,11.1,18.5,11.1,18.5-4.877,18.5-11.1S69.582,37,59.207,37Z"/><path class="b" d="M59.207,33.3c-10.375,0-18.5,4.877-18.5,11.1s8.127,11.1,18.5,11.1,18.5-4.877,18.5-11.1S69.582,33.3,59.207,33.3Z"/><path class="a" d="M59.207,29.6c-10.375,0-18.5,4.877-18.5,11.1s8.127,11.1,18.5,11.1,18.5-4.877,18.5-11.1S69.582,29.6,59.207,29.6Z"/><path class="b" d="M40.7,55.507c0,6.225,8.127,11.1,18.5,11.1v-22.2C48.832,44.405,40.7,49.282,40.7,55.507Z"/><path class="c" d="M40.7,51.806c0,6.225,8.127,11.1,18.5,11.1V40.7C48.832,40.7,40.7,45.582,40.7,51.806Z"/><path class="b" d="M40.7,48.106c0,6.225,8.127,11.1,18.5,11.1V37C48.832,37,40.7,41.881,40.7,48.106Z"/><path class="c" d="M40.7,44.405c0,6.225,8.127,11.1,18.5,11.1V33.3C48.832,33.3,40.7,38.181,40.7,44.405Z"/><path class="b" d="M40.7,40.7c0,6.225,8.127,11.1,18.5,11.1V29.6C48.832,29.6,40.7,34.48,40.7,40.7Z"/><path class="b" d="M59.207,25.9C48.832,25.9,40.7,30.78,40.7,37s8.127,11.1,18.5,11.1,18.5-4.877,18.5-11.1S69.582,25.9,59.207,25.9Z"/><path class="c" d="M40.7,37c0,6.225,8.127,11.1,18.5,11.1V25.9C48.832,25.9,40.7,30.78,40.7,37Z"/><path class="a" d="M59.207,22.2c-10.375,0-18.5,4.877-18.5,11.1s8.127,11.1,18.5,11.1,18.5-4.877,18.5-11.1S69.582,22.2,59.207,22.2Z"/><path class="b" d="M59.207,18.5c-10.375,0-18.5,4.877-18.5,11.1s8.127,11.1,18.5,11.1,18.5-4.877,18.5-11.1S69.582,18.5,59.207,18.5Z"/><path class="b" d="M40.7,33.3c0,6.225,8.127,11.1,18.5,11.1V22.2C48.832,22.2,40.7,27.079,40.7,33.3Z"/><path class="c" d="M40.7,29.6c0,6.225,8.127,11.1,18.5,11.1V18.5C48.832,18.5,40.7,23.379,40.7,29.6Z"/><path class="a" d="M59.207,14.8c-10.375,0-18.5,4.877-18.5,11.1S48.832,37,59.207,37s18.5-4.877,18.5-11.1S69.582,14.8,59.207,14.8Z"/><path class="b" d="M59.207,11.1c-10.375,0-18.5,4.877-18.5,11.1s8.127,11.1,18.5,11.1,18.5-4.877,18.5-11.1S69.582,11.1,59.207,11.1Z"/><path class="a" d="M59.207,7.4c-10.375,0-18.5,4.877-18.5,11.1s8.127,11.1,18.5,11.1,18.5-4.877,18.5-11.1S69.582,7.4,59.207,7.4Z"/><path class="b" d="M40.7,25.9c0,6.225,8.127,11.1,18.5,11.1V14.8C48.832,14.8,40.7,19.679,40.7,25.9Z"/><path class="c" d="M40.7,22.2c0,6.225,8.127,11.1,18.5,11.1V11.1C48.832,11.1,40.7,15.978,40.7,22.2Z"/><path class="b" d="M40.7,18.5c0,6.225,8.127,11.1,18.5,11.1V7.4C48.832,7.4,40.7,12.278,40.7,18.5Z"/><path class="b" d="M59.207,3.7c-10.375,0-18.5,4.877-18.5,11.1s8.127,11.1,18.5,11.1,18.5-4.877,18.5-11.1S69.582,3.7,59.207,3.7Z"/><path class="c" d="M40.7,14.8c0,6.225,8.127,11.1,18.5,11.1V3.7C48.832,3.7,40.7,8.577,40.7,14.8Z"/><path class="a" d="M59.207,0C48.832,0,40.7,4.877,40.7,11.1s8.127,11.1,18.5,11.1,18.5-4.877,18.5-11.1S69.582,0,59.207,0Z"/><path class="d" d="M59.207,18.5c-7.5,0-12.952-3.113-12.952-7.4S51.7,3.7,59.207,3.7s12.952,3.113,12.952,7.4S66.711,18.5,59.207,18.5Zm0-11.1c-5.731,0-9.251,2.156-9.251,3.7s3.52,3.7,9.251,3.7,9.251-2.156,9.251-3.7S64.939,7.4,59.207,7.4Z"/><path class="a" d="M92.511,96.212c-10.375,0-18.5,4.877-18.5,11.1s8.127,11.1,18.5,11.1,18.5-4.877,18.5-11.1S102.886,96.212,92.511,96.212Z"/><path class="b" d="M92.511,92.511c-10.375,0-18.5,4.877-18.5,11.1s8.127,11.1,18.5,11.1,18.5-4.877,18.5-11.1S102.886,92.511,92.511,92.511Z"/><path class="b" d="M74.009,107.313c0,6.225,8.127,11.1,18.5,11.1v-22.2C82.136,96.212,74.009,101.088,74.009,107.313Z"/><path class="c" d="M74.009,103.613c0,6.225,8.127,11.1,18.5,11.1v-22.2C82.136,92.511,74.009,97.388,74.009,103.613Z"/><path class="b" d="M74.009,99.912c0,6.225,8.127,11.1,18.5,11.1v-22.2C82.136,88.811,74.009,93.688,74.009,99.912Z"/><path class="a" d="M92.511,88.811c-10.375,0-18.5,4.877-18.5,11.1s8.127,11.1,18.5,11.1,18.5-4.877,18.5-11.1S102.886,88.811,92.511,88.811Z"/><path class="b" d="M92.511,85.11c-10.375,0-18.5,4.877-18.5,11.1s8.127,11.1,18.5,11.1,18.5-4.877,18.5-11.1S102.886,85.11,92.511,85.11Z"/><path class="a" d="M92.511,81.41c-10.375,0-18.5,4.877-18.5,11.1s8.127,11.1,18.5,11.1,18.5-4.877,18.5-11.1S102.886,81.41,92.511,81.41Z"/><path class="b" d="M92.511,77.709c-10.375,0-18.5,4.877-18.5,11.1s8.127,11.1,18.5,11.1,18.5-4.877,18.5-11.1S102.886,77.709,92.511,77.709Z"/><path class="a" d="M92.511,74.009c-10.375,0-18.5,4.877-18.5,11.1s8.127,11.1,18.5,11.1,18.5-4.877,18.5-11.1S102.886,74.009,92.511,74.009Z"/><path class="b" d="M74.009,99.912c0,6.225,8.127,11.1,18.5,11.1v-22.2C82.136,88.811,74.009,93.688,74.009,99.912Z"/><path class="c" d="M74.009,96.212c0,6.225,8.127,11.1,18.5,11.1V85.11C82.136,85.11,74.009,89.987,74.009,96.212Z"/><path class="b" d="M74.009,92.511c0,6.225,8.127,11.1,18.5,11.1V81.41C82.136,81.41,74.009,86.287,74.009,92.511Z"/><path class="c" d="M74.009,88.811c0,6.225,8.127,11.1,18.5,11.1v-22.2C82.136,77.709,74.009,82.586,74.009,88.811Z"/><path class="b" d="M74.009,85.11c0,6.225,8.127,11.1,18.5,11.1v-22.2C82.136,74.009,74.009,78.886,74.009,85.11Z"/><path class="b" d="M92.511,70.309c-10.375,0-18.5,4.877-18.5,11.1s8.127,11.1,18.5,11.1,18.5-4.877,18.5-11.1S102.886,70.309,92.511,70.309Z"/><path class="c" d="M74.009,81.41c0,6.225,8.127,11.1,18.5,11.1v-22.2C82.136,70.309,74.009,75.185,74.009,81.41Z"/><path class="a" d="M92.511,66.608c-10.375,0-18.5,4.877-18.5,11.1s8.127,11.1,18.5,11.1,18.5-4.877,18.5-11.1S102.886,66.608,92.511,66.608Z"/><path class="b" d="M92.511,62.908c-10.375,0-18.5,4.877-18.5,11.1s8.127,11.1,18.5,11.1,18.5-4.877,18.5-11.1S102.886,62.908,92.511,62.908Z"/><path class="b" d="M74.009,77.709c0,6.225,8.127,11.1,18.5,11.1v-22.2C82.136,66.608,74.009,71.485,74.009,77.709Z"/><path class="c" d="M74.009,74.009c0,6.225,8.127,11.1,18.5,11.1v-22.2C82.136,62.908,74.009,67.784,74.009,74.009Z"/><path class="a" d="M92.511,59.207c-10.375,0-18.5,4.877-18.5,11.1s8.127,11.1,18.5,11.1,18.5-4.877,18.5-11.1S102.886,59.207,92.511,59.207Z"/><path class="b" d="M92.511,55.507c-10.375,0-18.5,4.877-18.5,11.1s8.127,11.1,18.5,11.1,18.5-4.877,18.5-11.1S102.886,55.507,92.511,55.507Z"/><path class="a" d="M92.511,51.806c-10.375,0-18.5,4.877-18.5,11.1s8.127,11.1,18.5,11.1,18.5-4.877,18.5-11.1S102.886,51.806,92.511,51.806Z"/><path class="b" d="M74.009,70.309c0,6.225,8.127,11.1,18.5,11.1v-22.2C82.136,59.207,74.009,64.084,74.009,70.309Z"/><path class="c" d="M74.009,66.608c0,6.225,8.127,11.1,18.5,11.1v-22.2C82.136,55.507,74.009,60.384,74.009,66.608Z"/><path class="b" d="M74.009,62.908c0,6.225,8.127,11.1,18.5,11.1v-22.2C82.136,51.806,74.009,56.683,74.009,62.908Z"/><path class="b" d="M92.511,48.106c-10.375,0-18.5,4.877-18.5,11.1s8.127,11.1,18.5,11.1,18.5-4.877,18.5-11.1S102.886,48.106,92.511,48.106Z"/><path class="c" d="M74.009,59.207c0,6.225,8.127,11.1,18.5,11.1v-22.2C82.136,48.106,74.009,52.983,74.009,59.207Z"/><path class="a" d="M92.511,44.405c-10.375,0-18.5,4.877-18.5,11.1s8.127,11.1,18.5,11.1,18.5-4.877,18.5-11.1S102.886,44.405,92.511,44.405Z"/><path class="d" d="M92.511,62.908c-7.5,0-12.952-3.113-12.952-7.4s5.448-7.4,12.952-7.4,12.952,3.113,12.952,7.4S100.015,62.908,92.511,62.908Zm0-11.1c-5.731,0-9.251,2.156-9.251,3.7s3.52,3.7,9.251,3.7,9.251-2.156,9.251-3.7S98.243,51.806,92.511,51.806Z"/><path class="a" d="M25.9,96.212c-10.375,0-18.5,4.877-18.5,11.1s8.127,11.1,18.5,11.1,18.5-4.877,18.5-11.1S36.278,96.212,25.9,96.212Z"/><path class="b" d="M25.9,92.511c-10.375,0-18.5,4.877-18.5,11.1s8.127,11.1,18.5,11.1,18.5-4.877,18.5-11.1S36.278,92.511,25.9,92.511Z"/><path class="a" d="M25.9,88.811c-10.375,0-18.5,4.877-18.5,11.1s8.127,11.1,18.5,11.1,18.5-4.877,18.5-11.1S36.278,88.811,25.9,88.811Z"/><path class="b" d="M25.9,85.11c-10.375,0-18.5,4.877-18.5,11.1s8.127,11.1,18.5,11.1,18.5-4.877,18.5-11.1S36.278,85.11,25.9,85.11Z"/><path class="a" d="M25.9,81.41c-10.375,0-18.5,4.877-18.5,11.1s8.127,11.1,18.5,11.1,18.5-4.877,18.5-11.1S36.278,81.41,25.9,81.41Z"/><path class="b" d="M25.9,77.709c-10.375,0-18.5,4.877-18.5,11.1s8.127,11.1,18.5,11.1,18.5-4.877,18.5-11.1S36.278,77.709,25.9,77.709Z"/><path class="b" d="M7.4,107.313c0,6.225,8.127,11.1,18.5,11.1v-22.2C15.528,96.212,7.4,101.088,7.4,107.313Z"/><path class="c" d="M7.4,103.613c0,6.225,8.127,11.1,18.5,11.1v-22.2C15.528,92.511,7.4,97.388,7.4,103.613Z"/><path class="b" d="M7.4,99.912c0,6.225,8.127,11.1,18.5,11.1v-22.2C15.528,88.811,7.4,93.688,7.4,99.912Z"/><path class="b" d="M7.4,99.912c0,6.225,8.127,11.1,18.5,11.1v-22.2C15.528,88.811,7.4,93.688,7.4,99.912Z"/><path class="c" d="M7.4,96.212c0,6.225,8.127,11.1,18.5,11.1V85.11C15.528,85.11,7.4,89.987,7.4,96.212Z"/><path class="b" d="M7.4,92.511c0,6.225,8.127,11.1,18.5,11.1V81.41C15.528,81.41,7.4,86.287,7.4,92.511Z"/><path class="c" d="M7.4,88.811c0,6.225,8.127,11.1,18.5,11.1v-22.2C15.528,77.709,7.4,82.586,7.4,88.811Z"/><path class="b" d="M7.4,85.11c0,6.225,8.127,11.1,18.5,11.1v-22.2C15.528,74.009,7.4,78.886,7.4,85.11Z"/><path class="a" d="M25.9,74.009c-10.375,0-18.5,4.877-18.5,11.1s8.127,11.1,18.5,11.1,18.5-4.877,18.5-11.1S36.278,74.009,25.9,74.009Z"/><path class="b" d="M25.9,70.309c-10.375,0-18.5,4.877-18.5,11.1s8.127,11.1,18.5,11.1,18.5-4.877,18.5-11.1S36.278,70.309,25.9,70.309Z"/><path class="a" d="M25.9,66.608c-10.375,0-18.5,4.877-18.5,11.1s8.127,11.1,18.5,11.1,18.5-4.877,18.5-11.1S36.278,66.608,25.9,66.608Z"/><path class="b" d="M25.9,62.908c-10.375,0-18.5,4.877-18.5,11.1s8.127,11.1,18.5,11.1,18.5-4.877,18.5-11.1S36.278,62.908,25.9,62.908Z"/><path class="a" d="M25.9,59.207c-10.375,0-18.5,4.877-18.5,11.1s8.127,11.1,18.5,11.1,18.5-4.877,18.5-11.1S36.278,59.207,25.9,59.207Z"/><path class="b" d="M7.4,85.11c0,6.225,8.127,11.1,18.5,11.1v-22.2C15.528,74.009,7.4,78.886,7.4,85.11Z"/><path class="c" d="M7.4,81.41c0,6.225,8.127,11.1,18.5,11.1v-22.2C15.528,70.309,7.4,75.185,7.4,81.41Z"/><path class="b" d="M7.4,77.709c0,6.225,8.127,11.1,18.5,11.1v-22.2C15.528,66.608,7.4,71.485,7.4,77.709Z"/><path class="c" d="M7.4,74.009c0,6.225,8.127,11.1,18.5,11.1v-22.2C15.528,62.908,7.4,67.784,7.4,74.009Z"/><path class="b" d="M7.4,70.309c0,6.225,8.127,11.1,18.5,11.1v-22.2C15.528,59.207,7.4,64.084,7.4,70.309Z"/><path class="b" d="M25.9,55.507c-10.375,0-18.5,4.877-18.5,11.1s8.127,11.1,18.5,11.1,18.5-4.877,18.5-11.1S36.278,55.507,25.9,55.507Z"/><path class="c" d="M7.4,66.608c0,6.225,8.127,11.1,18.5,11.1v-22.2C15.528,55.507,7.4,60.384,7.4,66.608Z"/><path class="a" d="M25.9,51.806c-10.375,0-18.5,4.877-18.5,11.1s8.127,11.1,18.5,11.1,18.5-4.877,18.5-11.1S36.278,51.806,25.9,51.806Z"/><path class="b" d="M25.9,48.106c-10.375,0-18.5,4.877-18.5,11.1s8.127,11.1,18.5,11.1,18.5-4.877,18.5-11.1S36.278,48.106,25.9,48.106Z"/><path class="b" d="M7.4,62.908c0,6.225,8.127,11.1,18.5,11.1v-22.2C15.528,51.806,7.4,56.683,7.4,62.908Z"/><path class="c" d="M7.4,59.207c0,6.225,8.127,11.1,18.5,11.1v-22.2C15.528,48.106,7.4,52.983,7.4,59.207Z"/><path class="a" d="M25.9,44.405c-10.375,0-18.5,4.877-18.5,11.1s8.127,11.1,18.5,11.1,18.5-4.877,18.5-11.1S36.278,44.405,25.9,44.405Z"/><path class="b" d="M25.9,40.7c-10.375,0-18.5,4.877-18.5,11.1s8.127,11.1,18.5,11.1,18.5-4.877,18.5-11.1S36.278,40.7,25.9,40.7Z"/><path class="a" d="M25.9,37c-10.375,0-18.5,4.877-18.5,11.1s8.127,11.1,18.5,11.1,18.5-4.877,18.5-11.1S36.278,37,25.9,37Z"/><path class="b" d="M7.4,55.507c0,6.225,8.127,11.1,18.5,11.1v-22.2C15.528,44.405,7.4,49.282,7.4,55.507Z"/><path class="c" d="M7.4,51.806c0,6.225,8.127,11.1,18.5,11.1V40.7C15.528,40.7,7.4,45.582,7.4,51.806Z"/><path class="b" d="M7.4,48.106c0,6.225,8.127,11.1,18.5,11.1V37C15.528,37,7.4,41.881,7.4,48.106Z"/><path class="b" d="M25.9,33.3c-10.375,0-18.5,4.877-18.5,11.1s8.127,11.1,18.5,11.1,18.5-4.877,18.5-11.1S36.278,33.3,25.9,33.3Z"/><path class="c" d="M7.4,44.405c0,6.225,8.127,11.1,18.5,11.1V33.3C15.528,33.3,7.4,38.181,7.4,44.405Z"/><path class="a" d="M25.9,29.6C15.528,29.6,7.4,34.48,7.4,40.7s8.127,11.1,18.5,11.1,18.5-4.877,18.5-11.1S36.278,29.6,25.9,29.6Z"/><path class="d" d="M25.9,48.106c-7.5,0-12.952-3.113-12.952-7.4S18.4,33.3,25.9,33.3s12.952,3.113,12.952,7.4S33.407,48.106,25.9,48.106Zm0-11.1c-5.731,0-9.251,2.156-9.251,3.7s3.52,3.7,9.251,3.7,9.251-2.156,9.251-3.7S31.634,37,25.9,37Z"/></g></svg>