<svg xmlns="http://www.w3.org/2000/svg" viewBox="615 367.06 118.414 118.414"><defs><style>.a{fill:#d8dce1;}.b{fill:#fff;}.c{fill:#5c546a;}.d{fill:#8b8996;}.e{fill:#ff9600;}.f{fill:#ffd200;}</style></defs><g transform="translate(615 367.06)"><path class="a" d="M59.207,5.551a53.657,53.657,0,1,0,53.657,53.657A53.717,53.717,0,0,0,59.207,5.551Z"/><path class="b" d="M59.207,24.053A35.154,35.154,0,1,0,94.362,59.207,35.194,35.194,0,0,0,59.207,24.053Z"/><path class="c" d="M59.207,16.446h0a1.85,1.85,0,0,1-1.85-1.85V11.1h3.7V14.6A1.85,1.85,0,0,1,59.207,16.446Z"/><path class="c" d="M61.057,107.313h-3.7v-3.495a1.85,1.85,0,0,1,1.85-1.85h0a1.85,1.85,0,0,1,1.85,1.85Z"/><path class="d" d="M59.207,57.357a1.85,1.85,0,0,1-1.85-1.85v-7.4a1.85,1.85,0,0,1,3.7,0v7.4A1.85,1.85,0,0,1,59.207,57.357Z"/><path class="c" d="M107.313,61.057h-3.495a1.85,1.85,0,0,1-1.85-1.85h0a1.85,1.85,0,0,1,1.85-1.85h3.495Z"/><path class="c" d="M14.6,61.057H11.1v-3.7H14.6a1.85,1.85,0,0,1,1.85,1.85h0A1.85,1.85,0,0,1,14.6,61.057Z"/><path class="d" d="M19.648,38.5l-3.027-1.747,1.85-3.205L21.5,35.3a1.85,1.85,0,0,1,.677,2.527h0A1.85,1.85,0,0,1,19.648,38.5Z"/><path class="d" d="M99.943,84.863l-3.027-1.747a1.85,1.85,0,0,1-.677-2.527h0a1.85,1.85,0,0,1,2.527-.677l3.027,1.747Z"/><path class="d" d="M80.588,22.176h0a1.85,1.85,0,0,1-.677-2.527l1.747-3.027,3.205,1.85L83.116,21.5A1.851,1.851,0,0,1,80.588,22.176Z"/><path class="d" d="M36.757,101.793l-3.205-1.85L35.3,96.916a1.85,1.85,0,0,1,2.527-.677h0a1.85,1.85,0,0,1,.677,2.527Z"/><path class="d" d="M96.239,37.827h0a1.85,1.85,0,0,1,.677-2.527l3.027-1.747,1.85,3.205L98.766,38.5A1.85,1.85,0,0,1,96.239,37.827Z"/><path class="d" d="M18.471,84.863l-1.85-3.205,3.027-1.747a1.85,1.85,0,0,1,2.527.677h0a1.85,1.85,0,0,1-.677,2.527Z"/><path class="d" d="M35.3,21.5l-1.747-3.027,3.205-1.85L38.5,19.648a1.85,1.85,0,0,1-.677,2.527h0A1.85,1.85,0,0,1,35.3,21.5Z"/><path class="d" d="M81.657,101.793,79.91,98.766a1.85,1.85,0,0,1,.677-2.527h0a1.85,1.85,0,0,1,2.527.677l1.747,3.027Z"/><path class="d" d="M70.309,61.057h-7.4a1.85,1.85,0,0,1,0-3.7h7.4a1.85,1.85,0,1,1,0,3.7Z"/><path class="e" d="M86.961,62.908H74.009a3.711,3.711,0,0,1-3.7-3.7h0a3.711,3.711,0,0,1,3.7-3.7H86.961a3.711,3.711,0,0,1,3.7,3.7h0A3.711,3.711,0,0,1,86.961,62.908Z"/><path class="e" d="M62.908,25.9v18.5a3.711,3.711,0,0,1-3.7,3.7h0a3.711,3.711,0,0,1-3.7-3.7V25.9a3.711,3.711,0,0,1,3.7-3.7h0A3.711,3.711,0,0,1,62.908,25.9Z"/><path class="f" d="M59.207,118.414a59.207,59.207,0,1,1,59.207-59.207A59.275,59.275,0,0,1,59.207,118.414Zm0-107.313a48.106,48.106,0,1,0,48.106,48.106A48.16,48.16,0,0,0,59.207,11.1Z"/><path class="e" d="M11.1,59.207A48.16,48.16,0,0,1,59.207,11.1V0a59.207,59.207,0,0,0,0,118.414v-11.1A48.16,48.16,0,0,1,11.1,59.207Z"/><circle class="c" cx="5.551" cy="5.551" r="5.551" transform="translate(53.657 53.657)"/></g></svg>