<svg xmlns="http://www.w3.org/2000/svg" viewBox="791 364.918 118.414 118.414"><defs><style>.a{fill:#8b8996;}.b{fill:#b9bbc1;}.c{fill:#5c546a;}</style></defs><g transform="translate(791 364.918)"><path class="a" d="M112.864,48.106h-4.947A49.388,49.388,0,0,0,101.5,32.612l3.5-3.5a5.558,5.558,0,0,0,0-7.849l-7.851-7.85a5.681,5.681,0,0,0-7.849,0l-3.5,3.5A49.392,49.392,0,0,0,70.309,10.5V5.551A5.557,5.557,0,0,0,64.758,0h-11.1a5.557,5.557,0,0,0-5.551,5.551V10.5a49.393,49.393,0,0,0-15.494,6.414l-3.5-3.5a5.681,5.681,0,0,0-7.849,0l-7.851,7.85a5.558,5.558,0,0,0,0,7.849l3.5,3.5A49.349,49.349,0,0,0,10.5,48.106H5.551A5.557,5.557,0,0,0,0,53.657v11.1a5.557,5.557,0,0,0,5.551,5.551H10.5A49.345,49.345,0,0,0,16.914,85.8l-3.5,3.5a5.558,5.558,0,0,0,0,7.849L21.267,105a5.681,5.681,0,0,0,7.849,0l3.5-3.5a49.393,49.393,0,0,0,15.494,6.414v4.948a5.557,5.557,0,0,0,5.551,5.551h11.1a5.557,5.557,0,0,0,5.551-5.551v-4.947A49.394,49.394,0,0,0,85.8,101.5l3.5,3.5a5.681,5.681,0,0,0,7.849,0L105,97.148a5.558,5.558,0,0,0,0-7.849l-3.5-3.5a49.39,49.39,0,0,0,6.414-15.494h4.948a5.557,5.557,0,0,0,5.551-5.551v-11.1A5.557,5.557,0,0,0,112.864,48.106ZM59.207,86.961A27.753,27.753,0,1,1,86.961,59.207,27.785,27.785,0,0,1,59.207,86.961Z"/><path class="b" d="M112.864,48.106h-4.947A49.388,49.388,0,0,0,101.5,32.612l3.5-3.5a5.558,5.558,0,0,0,0-7.849l-7.851-7.85a5.681,5.681,0,0,0-7.849,0l-3.5,3.5A49.392,49.392,0,0,0,70.309,10.5V5.551A5.557,5.557,0,0,0,64.758,0H59.207V31.454a27.753,27.753,0,0,1,0,55.507v31.454h5.551a5.557,5.557,0,0,0,5.551-5.551v-4.947A49.394,49.394,0,0,0,85.8,101.5l3.5,3.5a5.681,5.681,0,0,0,7.849,0L105,97.148a5.558,5.558,0,0,0,0-7.849l-3.5-3.5a49.39,49.39,0,0,0,6.414-15.494h4.948a5.557,5.557,0,0,0,5.551-5.551v-11.1A5.557,5.557,0,0,0,112.864,48.106Z"/><path class="c" d="M94.362,59.207A35.154,35.154,0,1,0,59.207,94.362,35.154,35.154,0,0,0,94.362,59.207Zm-62.908,0A27.753,27.753,0,1,1,59.207,86.961,27.785,27.785,0,0,1,31.454,59.207Z"/></g></svg>