<?xml version="1.0" encoding="iso-8859-1"?>
<!-- Generator: Adobe Illustrator 19.2.1, SVG Export Plug-In . SVG Version: 6.00 Build 0)  -->
<svg version="1.1" xmlns="http://www.w3.org/2000/svg" xmlns:xlink="http://www.w3.org/1999/xlink" x="0px" y="0px"
	 viewBox="0 0 40 40" style="enable-background:new 0 0 40 40;" xml:space="preserve">
<g id="Region">
	<g>
		<g id="XMLID_2_">
			<path style="fill-rule:evenodd;clip-rule:evenodd;" d="M20,0c11.046,0,20,8.954,20,20s-8.954,20-20,20S0,31.046,0,20
				S8.954,0,20,0z M37.002,20c0-9.39-7.612-17.002-17.002-17.002C10.611,2.998,2.998,10.61,2.998,20
				c0,9.389,7.613,17.002,17.002,17.002C29.39,37.002,37.002,29.389,37.002,20z"/>
		</g>
		<g>
			<g>
				<g>
					<path style="fill:none;stroke:#000000;stroke-width:2;stroke-linecap:round;stroke-miterlimit:10;" d="M17.839,10.416
						c-4.709,4.665-5.741,14.576-0.084,21.917"/>
				</g>
				<g>
					<path style="fill:none;stroke:#000000;stroke-width:2;stroke-linecap:round;stroke-miterlimit:10;" d="M22.161,10.416
						c4.709,4.665,5.741,14.576,0.084,21.917"/>
				</g>
				<g>
					<g>
						<g>
							<path d="M9.286,18.647c6.726,0,13.452,0,20.178,0c1.448,0,1.45-2.25,0-2.25c-6.726,0-13.452,0-20.178,0
								C7.838,16.397,7.836,18.647,9.286,18.647L9.286,18.647z"/>
						</g>
					</g>
					<g>
						<g>
							<path d="M9.286,25.985c6.726,0,13.452,0,20.178,0c1.448,0,1.45-2.25,0-2.25c-6.726,0-13.452,0-20.178,0
								C7.838,23.735,7.836,25.985,9.286,25.985L9.286,25.985z"/>
						</g>
					</g>
				</g>
			</g>
			<path style="stroke:#000000;stroke-width:0.5;stroke-miterlimit:10;" d="M28.96,8.113l0.199,0.051
				c0.845,0.2,1.378,1.016,1.188,1.818c-0.001,0.006-0.021,0.086-0.057,0.195c-0.068,0.218-0.698,2.1-2.601,3.752
				c-0.958-2.328-0.676-4.302-0.639-4.532c0.017-0.111,0.035-0.189,0.036-0.195C27.276,8.403,28.116,7.915,28.96,8.113
				 M28.606,10.059c0.218,0.052,0.437-0.084,0.488-0.301c0.052-0.218-0.083-0.437-0.301-0.489c-0.218-0.052-0.437,0.084-0.488,0.302
				C28.253,9.788,28.388,10.007,28.606,10.059 M29.049,7.749c-1.018-0.241-2.087,0.35-2.328,1.368c0,0-0.022,0.091-0.042,0.225
				c-0.102,0.627-0.263,2.705,0.8,5.049c0.033,0.089,0.066,0.143,0.066,0.143s0.054-0.033,0.123-0.098
				c2.002-1.618,2.788-3.536,2.978-4.146c0.041-0.125,0.064-0.22,0.064-0.22c0.242-1.022-0.448-2.029-1.466-2.27L29.049,7.749
				L29.049,7.749z"/>
		</g>
	</g>
</g>
<g id="Layer_1">
</g>
</svg>
