<?xml version="1.0" encoding="utf-8"?>
<!-- Generator: Adobe Illustrator 19.2.1, SVG Export Plug-In . SVG Version: 6.00 Build 0)  -->
<svg version="1.1" id="Layer_1" xmlns="http://www.w3.org/2000/svg" xmlns:xlink="http://www.w3.org/1999/xlink" x="0px" y="0px"
	 viewBox="0 0 19.5 19.5" style="enable-background:new 0 0 19.5 19.5;" xml:space="preserve">
<style type="text/css">
	.st0{fill:#FFFFFF;stroke:#fff;stroke-miterlimit:10;}
</style>
<path class="st0" style="stroke:#fff" d="M18.8,18.3l-4-4c1.3-1.5,2.2-3.4,2.2-5.5c0-4.5-3.7-8.2-8.2-8.2c-4.5,0-8.2,3.7-8.2,8.2s3.7,8.2,8.2,8.2
	c2.1,0,4.1-0.8,5.5-2.2l4,4L18.8,18.3z M1.2,8.7c0-4.2,3.4-7.5,7.5-7.5c4.2,0,7.5,3.4,7.5,7.5s-3.4,7.5-7.5,7.5
	C4.5,16.2,1.2,12.8,1.2,8.7z"/>
</svg>
