<?xml version="1.0" encoding="iso-8859-1"?>
<!-- Generator: Adobe Illustrator 19.2.1, SVG Export Plug-In . SVG Version: 6.00 Build 0)  -->
<svg version="1.1" xmlns="http://www.w3.org/2000/svg" xmlns:xlink="http://www.w3.org/1999/xlink" x="0px" y="0px"
	 viewBox="0 0 40 40" style="enable-background:new 0 0 40 40;" xml:space="preserve">
<g id="Setting">
	<g>
		<g>
			<g>
				<g>
					<circle cx="20.001" cy="20" r="2.198"/>
					<path style="fill:none;stroke:#000000;stroke-miterlimit:10;" d="M30.554,18.121l-2.65-0.497
						c-0.161-0.536-0.372-1.05-0.634-1.534l1.533-2.242c0.142-0.207,0.112-0.52-0.066-0.697l-1.891-1.891
						c-0.178-0.178-0.49-0.207-0.696-0.065l-2.243,1.534c-0.498-0.268-1.028-0.484-1.581-0.646l-0.494-2.637
						c-0.046-0.247-0.287-0.447-0.539-0.447H18.62c-0.252,0-0.492,0.2-0.539,0.447l-0.5,2.662c-0.53,0.162-1.038,0.373-1.517,0.633
						l-2.214-1.515c-0.207-0.142-0.52-0.113-0.697,0.065l-1.891,1.891c-0.178,0.178-0.207,0.49-0.065,0.697l1.524,2.228
						c-0.257,0.479-0.465,0.987-0.624,1.516l-2.65,0.496C9.2,18.168,9,18.408,9,18.66v2.674c0,0.252,0.2,0.492,0.447,0.54
						l2.648,0.496c0.162,0.541,0.375,1.059,0.638,1.547l-1.507,2.203c-0.142,0.208-0.113,0.52,0.065,0.697l1.891,1.891
						c0.178,0.178,0.49,0.207,0.697,0.066l2.202-1.508c0.474,0.256,0.977,0.465,1.501,0.626l0.499,2.663
						c0.047,0.247,0.288,0.446,0.539,0.446h2.674c0.252,0,0.492-0.199,0.539-0.446l0.495-2.637c0.546-0.161,1.071-0.374,1.564-0.638
						l2.23,1.526c0.208,0.142,0.52,0.113,0.697-0.066l1.89-1.89c0.179-0.178,0.207-0.489,0.066-0.697l-1.518-2.217
						c0.268-0.493,0.483-1.018,0.648-1.565l2.648-0.496C30.8,21.827,31,21.586,31,21.335v-2.674
						C31.002,18.408,30.801,18.168,30.554,18.121z M20.001,24.589c-2.534,0-4.588-2.055-4.588-4.59c0-2.533,2.055-4.588,4.588-4.588
						c2.535,0,4.59,2.055,4.59,4.588C24.591,22.535,22.535,24.589,20.001,24.589z"/>
				</g>
			</g>
		</g>
		<g id="XMLID_3_">
			<path style="fill-rule:evenodd;clip-rule:evenodd;" d="M20,0c11.046,0,20,8.954,20,20s-8.954,20-20,20S0,31.046,0,20
				S8.954,0,20,0z M37.002,20c0-9.39-7.612-17.002-17.002-17.002C10.611,2.998,2.998,10.61,2.998,20
				c0,9.389,7.613,17.002,17.002,17.002C29.39,37.002,37.002,29.389,37.002,20z"/>
		</g>
	</g>
</g>
<g id="Layer_1">
</g>
</svg>
