<?xml version="1.0" encoding="iso-8859-1"?>
<!-- Generator: Adobe Illustrator 19.2.1, SVG Export Plug-In . SVG Version: 6.00 Build 0)  -->
<svg version="1.1" xmlns="http://www.w3.org/2000/svg" xmlns:xlink="http://www.w3.org/1999/xlink" x="0px" y="0px"
	 viewBox="0 0 40 40" style="enable-background:new 0 0 40 40;" xml:space="preserve">
<g id="Supplier-Approval">
	<g>
		<g>
			<path style="fill:none;stroke:#231F20;stroke-linecap:round;stroke-miterlimit:10;" d="M26.412,13.776v14.141
				c0,0.434-0.352,0.786-0.786,0.786H14.374c-0.434,0-0.786-0.352-0.786-0.786V13.776c0-0.434,0.352-0.786,0.786-0.786h11.253
				C26.06,12.99,26.412,13.342,26.412,13.776z"/>
			<rect x="17.815" y="11.994" style="fill:#231F20;" width="4.371" height="1.993"/>
			
				<line style="fill:#E6E7E8;stroke:#231F20;stroke-linecap:round;stroke-miterlimit:10;" x1="15.915" y1="16.956" x2="24.085" y2="16.956"/>
			
				<line style="fill:#E6E7E8;stroke:#231F20;stroke-linecap:round;stroke-miterlimit:10;" x1="15.915" y1="18.363" x2="24.085" y2="18.363"/>
			
				<line style="fill:#E6E7E8;stroke:#231F20;stroke-linecap:round;stroke-miterlimit:10;" x1="15.915" y1="19.769" x2="24.085" y2="19.769"/>
			<g>
				<g id="XMLID_6_">
					
						<line style="fill:none;stroke:#231F20;stroke-linecap:round;stroke-miterlimit:10;" x1="21.068" y1="23.401" x2="19.649" y2="24.819"/>
					
						<line style="fill:none;stroke:#231F20;stroke-linecap:round;stroke-miterlimit:10;" x1="18.932" y1="24.101" x2="19.649" y2="24.819"/>
				</g>
				<g>
					<path style="fill:#231F20;" d="M20,21.871c1.234,0,2.238,1.004,2.238,2.238S21.234,26.348,20,26.348s-2.238-1.004-2.238-2.238
						S18.766,21.871,20,21.871 M20,20.871c-1.789,0-3.238,1.45-3.238,3.238s1.45,3.238,3.238,3.238s3.238-1.45,3.238-3.238
						S21.789,20.871,20,20.871L20,20.871z"/>
				</g>
			</g>
		</g>
		<g id="XMLID_7_">
			<path style="fill-rule:evenodd;clip-rule:evenodd;" d="M20,0c11.046,0,20,8.954,20,20s-8.954,20-20,20S0,31.046,0,20
				S8.954,0,20,0z M37.002,20c0-9.39-7.612-17.002-17.002-17.002C10.611,2.998,2.998,10.61,2.998,20
				c0,9.389,7.613,17.002,17.002,17.002C29.39,37.002,37.002,29.389,37.002,20z"/>
		</g>
		<circle style="fill:#231F20;" cx="20" cy="11.994" r="0.932"/>
	</g>
</g>
<g id="Layer_1">
</g>
</svg>
