<?xml version="1.0" encoding="iso-8859-1"?>
<!-- Generator: Adobe Illustrator 19.2.1, SVG Export Plug-In . SVG Version: 6.00 Build 0)  -->
<svg version="1.1" xmlns="http://www.w3.org/2000/svg" xmlns:xlink="http://www.w3.org/1999/xlink" x="0px" y="0px"
	 viewBox="0 0 50 50" style="enable-background:new 0 0 50 50;" xml:space="preserve">
<g id="tab-student">
	<g>
		<g>
			<g>
				<g>
					<path style="fill:#919090;" d="M41.299,35.204c-0.369-0.884-1.259-1.449-2.107-1.797l-5.736-2.641l-2.756-2.324l-4.428,4.404
						H26.27l1.911,12.774c0.007,0.044-0.005,0.089-0.031,0.124l-1.998,2.734c-0.032,0.044-0.082,0.069-0.136,0.069
						c-0.054,0-0.105-0.026-0.136-0.069l-1.998-2.734c-0.026-0.036-0.037-0.081-0.031-0.124l1.911-12.774h-0.003l-4.427-4.404
						l-2.756,2.324l-5.736,2.641c-0.849,0.348-1.683,0.876-2.107,1.797c0,0-6.235,14.843-2.853,14.843h36.273
						C47.534,50.047,41.299,35.204,41.299,35.204z"/>
					<path style="fill:#919090;" d="M41.697,14.852c0.086-0.009,0.164-0.051,0.218-0.117c0.054-0.067,0.079-0.153,0.069-0.238
						c-0.064-0.548-0.129-1.095-0.192-1.644l-0.134-1.147c-0.02-0.171-0.174-0.296-0.346-0.28l-0.248,0l0.005-3.851l0.13-0.047
						l0.433-0.156c0.367-0.133,0.611-0.48,0.611-0.87c0-0.39-0.244-0.737-0.611-0.87L26.33,0.102c-0.203-0.074-0.426-0.074-0.629,0
						L10.4,5.632c-0.366,0.133-0.611,0.48-0.611,0.87c0,0.389,0.244,0.737,0.611,0.87l5.656,2.044
						c-0.399,1.261-0.581,2.704-0.565,4.311c0.1,9.166,5.42,14.631,10.343,14.631c4.866,0,10.244-5.466,10.343-14.631
						c0.016-1.557-0.155-2.96-0.529-4.193l4.113-1.486l0.009,3.38l-0.249,0c-0.173-0.015-0.326,0.109-0.346,0.282L38.855,14.5
						c-0.01,0.085,0.015,0.17,0.069,0.237c0.054,0.067,0.132,0.109,0.218,0.116 M25.836,26.132c-4.295,0-7.259-5.032-7.857-10.062
						c-0.553-4.652,6.175-4.868,6.565-1.985c0.12,0.886-0.897,1.836-0.782,2.202c0.569,1.807,9.996-5.898,9.931-0.219
						C33.648,20.077,29.928,26.132,25.836,26.132z"/>
				</g>
			</g>
		</g>
	</g>
</g>
<g id="Layer_1">
</g>
</svg>
