<?xml version="1.0" encoding="iso-8859-1"?>
<!-- Generator: Adobe Illustrator 19.2.1, SVG Export Plug-In . SVG Version: 6.00 Build 0)  -->
<svg version="1.1" xmlns="http://www.w3.org/2000/svg" xmlns:xlink="http://www.w3.org/1999/xlink" x="0px" y="0px"
	 viewBox="0 0 40 40" style="enable-background:new 0 0 40 40;" xml:space="preserve">
<g id="Token-Request">
	<g>
		<g id="XMLID_5_">
			<path style="fill-rule:evenodd;clip-rule:evenodd;" d="M20,0c11.046,0,20,8.954,20,20s-8.954,20-20,20S0,31.046,0,20
				S8.954,0,20,0z M37.002,20c0-9.39-7.612-17.002-17.002-17.002C10.611,2.998,2.998,10.61,2.998,20
				c0,9.389,7.613,17.002,17.002,17.002C29.39,37.002,37.002,29.389,37.002,20z"/>
		</g>
		<g>
			<g>
				<path d="M16.288,29.155l-4.3-6.461c-0.274-0.412-0.07-1.017,0.456-1.351l4.261-2.708c0.526-0.334,1.175-0.272,1.449,0.14
					l4.3,6.461c0.274,0.412,0.07,1.017-0.456,1.351l-4.261,2.708C17.211,29.63,16.562,29.567,16.288,29.155z"/>
				<path d="M27.374,17.106l-6.292-1.008c-0.225-0.036-0.455,0.013-0.644,0.137l-3.876,2.542c-0.267,0.175-0.417,0.476-0.394,0.791
					l0.315,4.412c0.022,0.314,0.214,0.594,0.503,0.734l4.054,1.96c0.289,0.14,0.631,0.118,0.898-0.057l3.92-2.571
					c0.162-0.106,0.284-0.261,0.348-0.442l1.88-5.335C28.266,17.751,27.927,17.194,27.374,17.106z M27.132,18.802
					c-0.162,0.434-0.644,0.655-1.078,0.493c-0.434-0.162-0.655-0.644-0.493-1.078c0.162-0.434,0.644-0.655,1.078-0.493
					C27.073,17.886,27.294,18.368,27.132,18.802z"/>
			</g>
			<path d="M15.831,11.489c1.21,0,2.194,0.984,2.194,2.194s-0.984,2.194-2.194,2.194s-2.194-0.984-2.194-2.194
				S14.621,11.489,15.831,11.489 M15.831,10.489c-1.764,0-3.194,1.43-3.194,3.194s1.43,3.194,3.194,3.194s3.194-1.43,3.194-3.194
				S17.595,10.489,15.831,10.489L15.831,10.489z"/>
			<g>
				<rect x="14.478" y="13.479" width="2.705" height="0.408"/>
				
					<rect x="14.478" y="13.479" transform="matrix(-1.836970e-16 1 -1 -1.836970e-16 29.5146 -2.1478)" width="2.705" height="0.408"/>
			</g>
		</g>
	</g>
</g>
<g id="Layer_1">
</g>
</svg>
