<?xml version="1.0" encoding="iso-8859-1"?>
<!-- Generator: Adobe Illustrator 19.2.1, SVG Export Plug-In . SVG Version: 6.00 Build 0)  -->
<svg version="1.1" xmlns="http://www.w3.org/2000/svg" xmlns:xlink="http://www.w3.org/1999/xlink" x="0px" y="0px"
	 viewBox="0 0 40 40" style="enable-background:new 0 0 40 40;" xml:space="preserve">
<g id="Token-Approval">
	<g>
		<g id="XMLID_4_">
			<path style="fill-rule:evenodd;clip-rule:evenodd;" d="M20,0c11.046,0,20,8.954,20,20s-8.954,20-20,20S0,31.046,0,20
				S8.954,0,20,0z M37.002,20c0-9.39-7.612-17.002-17.002-17.002C10.611,2.998,2.998,10.61,2.998,20
				c0,9.389,7.613,17.002,17.002,17.002C29.39,37.002,37.002,29.389,37.002,20z"/>
		</g>
		<g>
			<path d="M17.61,19.36c-1.86,0-3.38,1.52-3.38,3.38c0,1.87,1.52,3.39,3.38,3.39c1.87,0,3.39-1.52,3.39-3.39
				C21,20.88,19.48,19.36,17.61,19.36z M19.72,22.33l-2.2,2.2c-0.12,0.13-0.29,0.19-0.45,0.19c-0.16,0-0.33-0.06-0.45-0.19
				l-1.12-1.11c-0.24-0.25-0.24-0.66,0-0.9c0.25-0.25,0.66-0.25,0.91,0l0.66,0.66l1.75-1.75c0.25-0.25,0.65-0.25,0.9,0
				S19.97,22.08,19.72,22.33z M17.61,19.36c-1.86,0-3.38,1.52-3.38,3.38c0,1.87,1.52,3.39,3.38,3.39c1.87,0,3.39-1.52,3.39-3.39
				C21,20.88,19.48,19.36,17.61,19.36z M19.72,22.33l-2.2,2.2c-0.12,0.13-0.29,0.19-0.45,0.19c-0.16,0-0.33-0.06-0.45-0.19
				l-1.12-1.11c-0.24-0.25-0.24-0.66,0-0.9c0.25-0.25,0.66-0.25,0.91,0l0.66,0.66l1.75-1.75c0.25-0.25,0.65-0.25,0.9,0
				S19.97,22.08,19.72,22.33z M28.22,11.28l-9.64,0.45c-0.35,0.01-0.68,0.16-0.92,0.4l-4.96,4.96c-0.08,0.08-0.14,0.16-0.19,0.25
				c-0.01,0-0.01,0-0.02,0.01l-4.35,4.2c-0.54,0.52-0.54,1.37-0.01,1.89l8.28,8.22c0.53,0.52,1.4,0.53,1.93,0.01l4.35-4.21
				c0.07-0.07,0.14-0.15,0.19-0.23c0.07-0.05,0.14-0.11,0.21-0.17l5.02-5.02c0.21-0.21,0.34-0.48,0.38-0.76l1.14-8.49
				C29.74,11.96,29.07,11.24,28.22,11.28z M17.61,27.4c-2.57,0-4.66-2.09-4.66-4.66s2.09-4.66,4.66-4.66s4.67,2.09,4.67,4.66
				S20.18,27.4,17.61,27.4z M26.94,14.93c-0.7-0.1-1.17-0.75-1.07-1.44c0.11-0.7,0.76-1.17,1.45-1.07c0.69,0.11,1.17,0.76,1.06,1.45
				C28.28,14.56,27.63,15.04,26.94,14.93z M17.61,19.36c-1.86,0-3.38,1.52-3.38,3.38c0,1.87,1.52,3.39,3.38,3.39
				c1.87,0,3.39-1.52,3.39-3.39C21,20.88,19.48,19.36,17.61,19.36z M19.72,22.33l-2.2,2.2c-0.12,0.13-0.29,0.19-0.45,0.19
				c-0.16,0-0.33-0.06-0.45-0.19l-1.12-1.11c-0.24-0.25-0.24-0.66,0-0.9c0.25-0.25,0.66-0.25,0.91,0l0.66,0.66l1.75-1.75
				c0.25-0.25,0.65-0.25,0.9,0S19.97,22.08,19.72,22.33z"/>
		</g>
	</g>
</g>
<g id="Layer_1">
</g>
</svg>
