<?xml version="1.0" encoding="utf-8"?>
<!-- Generator: Adobe Illustrator 19.2.1, SVG Export Plug-In . SVG Version: 6.00 Build 0)  -->
<svg version="1.1" id="Layer_2" xmlns="http://www.w3.org/2000/svg" xmlns:xlink="http://www.w3.org/1999/xlink" x="0px" y="0px"
	 viewBox="0 0 100 100" fill="green" style="enable-background:new 0 0 100 100;" xml:space="preserve">
<style type="text/css">
	.st0{fill:none;stroke:#919191;stroke-width:3;stroke-miterlimit:10;}
</style>
<g>
	<g>
		<path class="st0" d="M70.5,13.7c3.3,0,6.6,0,10,0l0.7,0.3c0.5,0.3,1.5,0.8,2.3,1.8c0.9,1.2,1.3,2.4,1.5,3c0,1.9,0,3.8,0,5.7v1.6"
			/>
		<path class="st0" d="M52.2,13.7c-13.8,0-27.6,0-41.4,0c-0.2,0.1-3.2,1.7-3.7,5.5c0,0.3,0,0.5,0,0.8c0,0.2,0,0.4,0,0.6
			c0.1,2.2,1.1,4.2,2.8,5.5c4.5,0,9.1,0,13.6,0"/>
		<path class="st0" d="M75,26.1c3.3,0,6.7,0,10,0c1.3,0,2.5,0,3.8,0c0.5,0.2,2.5,1,3.7,3.4c0.6,1.4,0.7,2.7,0.7,3.4
			c-0.1,18.5-0.1,37-0.2,55.5c-0.3,0.7-0.9,2-2.3,3.2c-1.1,0.9-2.2,1.2-2.8,1.3C63.1,93,38.3,93,13.5,93.1c-0.7-0.1-2.5-0.5-4.1-2.1
			c-1.6-1.6-2.3-3.4-2.5-4.2c0.1-20.7,0.2-41.4,0.2-62l-0.1-4.2c0-0.2,0-0.4,0-0.6"/>
		<polygon class="st0" points="75,26.1 23.4,26.1 52.2,13.7 68.1,6.9 70.5,13.7 		"/>
		<path class="st0" d="M93,50.3v19.8H78.1c-4.2,0-7.6-3.9-7.6-8.7V59c0-4.8,3.4-8.7,7.6-8.7H93z"/>
	</g>
	<circle class="st0" cx="79.5" cy="60.2" r="4.4"/>
</g>
</svg>
